<svg xmlns="http://www.w3.org/2000/svg" xmlns:v="https://svgstorm.com"
viewBox = "0 0 1024 1024"
width="1024"
height="1024">
<g fill="None" fill-opacity="0.0" stroke="#000C19" stroke-opacity="1.00" stroke-width="0.3"><path d="
M 0.00 1024.00 
L 1024.00 1024.00
L 1024.00 0.00
L 0.00 0.00
L 0.00 1024.00
M 537.00 156.00 
C 547.98 156.00 558.49 158.33 569.00 160.00
C 576.05 159.98 583.71 160.78 591.00 160.00
C 599.40 165.38 613.03 167.83 623.68 171.32 C 634.33 174.82 645.54 181.12 656.00 182.00
C 657.08 185.56 664.55 190.01 669.00 188.00
C 668.85 191.44 673.79 194.33 677.00 192.00
C 680.86 199.75 692.75 203.63 700.08 208.92 C 707.42 214.21 715.09 218.24 722.08 224.92 C 729.07 231.60 736.44 237.03 743.25 243.75 C 750.05 250.47 756.61 256.99 763.25 263.75 C 769.89 270.51 775.02 277.66 781.75 285.25 C 788.48 292.84 791.33 300.40 798.75 308.25 C 806.18 316.09 805.52 322.52 800.00 332.00
C 793.54 335.34 781.87 339.48 776.25 332.75 C 770.62 326.03 766.61 320.44 761.75 314.25 C 756.88 308.07 754.50 301.68 748.75 296.25 C 743.00 290.81 738.84 284.05 732.75 279.25 C 726.67 274.44 722.60 264.80 716.00 267.00
C 715.66 258.77 704.54 254.21 697.75 248.25 C 690.97 242.29 682.84 236.49 674.78 232.22 C 666.71 227.96 658.87 221.08 650.25 217.75 C 641.63 214.42 632.19 209.66 622.92 206.08 C 613.66 202.50 602.88 197.32 593.00 198.00
C 593.55 196.18 591.25 195.53 591.00 194.00
C 588.67 193.45 586.48 193.17 584.00 193.00
C 556.10 191.10 527.51 184.20 499.00 184.00
C 498.21 184.17 497.83 184.82 497.00 185.00
C 497.61 185.15 499.58 186.27 500.00 187.00
C 464.53 186.13 425.30 196.83 394.32 209.32 C 363.35 221.81 340.19 237.58 314.70 258.70 C 289.21 279.81 272.71 298.51 254.70 325.70 C 236.68 352.88 224.12 382.03 215.01 415.01 C 205.90 447.99 203.42 495.78 206.00 531.00
C 212.08 580.01 230.29 624.60 257.00 666.00
C 307.59 744.41 395.05 792.29 485.00 801.00
C 508.06 803.23 531.28 800.00 554.00 800.00
C 564.46 798.51 576.45 795.82 587.00 793.00
C 595.45 789.40 605.89 786.09 615.01 783.01 C 624.12 779.92 633.76 775.20 642.23 771.23 C 650.70 767.26 659.73 761.80 667.75 757.75 C 675.76 753.69 683.14 747.68 691.25 742.25 C 699.36 736.82 706.04 731.05 712.92 724.92 C 719.80 718.78 726.34 713.39 732.75 706.75 C 739.16 700.11 745.24 693.43 750.90 685.90 C 756.56 678.37 765.68 670.37 775.25 674.75 C 784.81 679.14 788.35 693.50 781.69 700.69 C 775.04 707.89 769.81 715.02 764.08 722.08 C 758.35 729.14 751.05 733.33 744.30 740.30 C 737.55 747.27 730.89 752.92 723.75 758.75 C 716.62 764.58 708.84 769.87 700.97 774.97 C 693.11 780.08 685.80 786.36 677.75 790.75 C 669.70 795.15 659.06 798.66 651.31 803.31 C 643.55 807.95 630.92 809.58 627.00 816.00
C 610.81 816.61 596.48 824.08 578.99 826.99 C 561.51 829.90 542.33 833.33 524.00 833.00 C 505.67 832.67 482.28 833.43 465.00 831.00 C 447.72 828.56 432.12 823.20 415.98 819.02 C 399.83 814.85 385.63 809.15 370.97 803.03 C 356.31 796.90 344.85 786.77 332.00 784.00
C 331.42 777.36 320.03 775.62 315.08 770.91 C 310.13 766.21 302.41 759.97 296.75 755.25 C 291.10 750.53 283.60 744.19 277.92 739.08 C 272.24 733.97 267.46 727.09 261.10 721.90 C 254.74 716.71 252.00 706.04 244.00 706.00
C 246.32 700.43 239.50 696.71 236.75 692.25 C 234.00 687.78 232.06 681.18 226.00 682.00
C 226.02 669.23 214.03 658.60 209.08 645.92 C 204.12 633.25 197.14 623.27 192.94 609.92 C 188.73 596.56 184.41 581.64 181.01 566.99 C 177.61 552.35 175.33 534.01 174.02 517.98 C 172.72 501.94 172.16 481.11 173.98 464.98 C 175.79 448.84 177.18 430.50 181.00 416.00 C 184.81 401.50 189.24 387.81 194.31 374.31 C 199.37 360.80 205.55 348.12 211.32 335.32 C 217.10 322.52 227.27 312.58 231.00 299.00
C 237.95 295.15 243.14 284.82 249.75 277.75 C 256.37 270.68 261.56 261.08 267.78 253.78 C 274.00 246.48 284.44 242.74 290.75 234.75 C 297.06 226.76 307.17 222.91 314.23 216.23 C 321.29 209.55 333.47 206.09 338.00 198.00
C 350.92 194.97 363.44 186.84 378.68 180.68 C 393.92 174.52 408.98 168.93 425.67 164.67 C 442.36 160.41 461.03 157.25 479.00 155.00 C 496.97 152.75 519.83 152.47 538.00 153.00
C 537.02 154.11 535.68 154.28 537.00 156.00
M 553.00 309.00 
C 603.10 317.47 658.77 343.00 669.99 399.01 C 681.21 455.02 668.76 517.85 635.75 563.75 C 602.73 609.64 552.44 635.06 496.00 632.00
C 483.19 633.24 470.77 630.06 458.78 626.22 C 446.79 622.38 438.58 618.56 425.00 616.00
C 425.31 610.63 414.48 609.38 413.08 601.92 C 411.68 594.46 416.11 587.50 419.00 582.00
C 421.78 583.26 431.02 577.82 434.70 574.70 C 438.37 571.57 446.91 569.74 448.00 563.00
C 453.18 566.93 458.64 560.37 462.89 557.89 C 467.14 555.41 475.42 551.02 475.00 545.00
C 479.92 547.60 492.44 539.07 490.00 532.00
C 497.62 534.71 500.79 526.10 499.00 521.00
C 501.42 526.89 508.82 520.32 506.00 516.00
C 510.80 512.90 516.06 508.27 518.75 502.75 C 521.44 497.23 524.93 492.88 524.00 486.00
C 529.86 486.37 530.16 477.10 532.92 471.92 C 535.67 466.74 537.99 457.99 536.00 452.00
C 541.57 456.17 538.16 441.83 542.00 437.00
C 524.98 438.76 507.99 447.12 493.92 455.92 C 479.85 464.72 466.60 474.54 456.23 486.23 C 445.87 497.92 436.69 509.79 427.75 523.75 C 418.80 537.70 412.45 551.95 406.07 568.07 C 399.70 584.20 398.73 607.47 394.00 624.00
C 393.84 628.16 393.50 632.87 394.00 637.00
C 396.23 655.44 410.74 663.85 426.08 672.92 C 441.42 681.98 454.78 689.54 472.07 694.93 C 489.37 700.32 511.03 705.00 530.00 705.00
C 534.84 705.00 539.88 704.98 544.00 706.00
C 552.56 708.12 553.51 712.73 554.00 721.00
C 554.93 736.77 533.65 733.21 521.00 733.00 C 508.35 732.79 493.34 728.00 480.00 727.00
C 481.14 731.02 476.36 729.85 474.00 730.00
C 474.99 727.35 481.06 727.91 478.00 724.00
C 475.98 723.56 474.11 723.19 472.00 723.00
C 458.82 721.81 449.24 715.67 436.00 714.00
C 435.22 708.31 425.55 706.88 419.32 702.68 C 413.09 698.48 406.34 694.31 400.32 690.68 C 394.30 687.05 389.38 681.64 383.25 677.75 C 377.13 673.85 372.07 668.08 367.23 662.77 C 362.39 657.46 356.93 652.83 352.23 646.77 C 347.54 640.71 343.54 635.94 339.30 629.70 C 335.05 623.47 331.38 616.73 327.74 610.26 C 324.11 603.78 322.12 596.01 319.01 588.99 C 315.89 581.97 313.06 574.37 311.02 565.98 C 308.99 557.58 307.22 548.98 305.74 540.26 C 304.26 531.53 305.14 520.37 305.00 511.00 C 304.86 501.63 304.56 489.90 305.98 480.98 C 307.39 472.05 309.00 463.92 311.78 455.78 C 314.56 447.64 315.57 440.25 318.98 432.98 C 322.38 425.70 325.68 418.82 328.75 411.75 C 331.83 404.69 336.72 400.67 340.77 393.77 C 344.82 386.87 348.63 381.64 354.23 376.23 C 359.83 370.82 364.58 365.32 370.03 361.03 C 375.49 356.74 380.96 352.22 386.70 347.70 C 392.43 343.17 399.43 338.61 405.23 335.23 C 411.02 331.85 423.12 328.09 419.00 324.00
C 436.90 324.57 453.14 310.80 472.00 311.00
C 476.14 310.75 479.88 310.51 484.00 310.00
C 490.78 307.65 497.97 305.49 506.00 305.00 C 514.04 304.51 525.03 305.52 533.00 305.00 C 540.97 304.48 538.81 308.15 545.00 307.00 C 551.19 305.84 553.54 309.31 553.00 309.00
M 806.00 619.00 
C 826.41 621.15 821.46 656.39 800.78 652.22 C 780.09 648.05 785.31 616.82 806.00 619.00 Z"/>
</g>
<g fill="None" fill-opacity="0.0" stroke="#170902" stroke-opacity="1.00" stroke-width="0.3"><path d="
M 587.00 793.00 
C 602.25 788.93 619.85 783.54 634.02 777.03 C 648.20 770.51 662.99 762.78 675.75 754.75 C 688.50 746.71 701.33 737.76 712.25 728.25 C 723.16 718.74 735.99 706.97 744.30 696.30 C 752.62 685.64 770.02 665.58 780.75 681.25 C 791.49 696.92 770.37 709.85 762.25 721.25 C 754.12 732.64 739.57 742.41 729.25 752.25 C 718.93 762.08 704.13 771.49 692.00 779.00
C 683.76 784.10 675.36 790.88 666.00 794.00
C 633.68 809.98 600.85 821.84 565.00 828.00
C 562.93 828.36 561.04 828.71 559.00 829.00
C 514.43 835.42 456.99 831.36 416.33 817.67 C 375.66 803.98 342.25 791.83 310.00 764.00
C 282.46 740.24 258.19 720.59 237.25 689.75 C 216.31 658.92 200.55 627.91 189.07 590.93 C 177.59 553.95 172.30 499.45 176.00 459.00 C 179.70 418.55 192.12 379.86 208.77 344.77 C 225.42 309.68 243.95 286.31 269.00 257.00
C 272.66 252.71 276.76 248.62 281.00 245.00
C 319.84 211.81 360.77 185.84 409.00 171.00
C 437.22 162.32 466.95 156.63 497.00 155.00
C 508.72 154.36 522.09 154.51 533.00 156.00
C 534.33 156.00 535.67 156.00 537.00 156.00
C 535.68 154.28 537.02 154.11 538.00 153.00
C 519.83 152.47 496.97 152.75 479.00 155.00 C 461.03 157.25 442.36 160.41 425.67 164.67 C 408.98 168.93 393.92 174.52 378.68 180.68 C 363.44 186.84 350.92 194.97 338.00 198.00
C 333.47 206.09 321.29 209.55 314.23 216.23 C 307.17 222.91 297.06 226.76 290.75 234.75 C 284.44 242.74 274.00 246.48 267.78 253.78 C 261.56 261.08 256.37 270.68 249.75 277.75 C 243.14 284.82 237.95 295.15 231.00 299.00
C 227.27 312.58 217.10 322.52 211.32 335.32 C 205.55 348.12 199.37 360.80 194.31 374.31 C 189.24 387.81 184.81 401.50 181.00 416.00 C 177.18 430.50 175.79 448.84 173.98 464.98 C 172.16 481.11 172.72 501.94 174.02 517.98 C 175.33 534.01 177.61 552.35 181.01 566.99 C 184.41 581.64 188.73 596.56 192.94 609.92 C 197.14 623.27 204.12 633.25 209.08 645.92 C 214.03 658.60 226.02 669.23 226.00 682.00
C 232.06 681.18 234.00 687.78 236.75 692.25 C 239.50 696.71 246.32 700.43 244.00 706.00
C 252.00 706.04 254.74 716.71 261.10 721.90 C 267.46 727.09 272.24 733.97 277.92 739.08 C 283.60 744.19 291.10 750.53 296.75 755.25 C 302.41 759.97 310.13 766.21 315.08 770.91 C 320.03 775.62 331.42 777.36 332.00 784.00
C 344.85 786.77 356.31 796.90 370.97 803.03 C 385.63 809.15 399.83 814.85 415.98 819.02 C 432.12 823.20 447.72 828.56 465.00 831.00 C 482.28 833.43 505.67 832.67 524.00 833.00 C 542.33 833.33 561.51 829.90 578.99 826.99 C 596.48 824.08 610.81 816.61 627.00 816.00
C 630.92 809.58 643.55 807.95 651.31 803.31 C 659.06 798.66 669.70 795.15 677.75 790.75 C 685.80 786.36 693.11 780.08 700.97 774.97 C 708.84 769.87 716.62 764.58 723.75 758.75 C 730.89 752.92 737.55 747.27 744.30 740.30 C 751.05 733.33 758.35 729.14 764.08 722.08 C 769.81 715.02 775.04 707.89 781.69 700.69 C 788.35 693.50 784.81 679.14 775.25 674.75 C 765.68 670.37 756.56 678.37 750.90 685.90 C 745.24 693.43 739.16 700.11 732.75 706.75 C 726.34 713.39 719.80 718.78 712.92 724.92 C 706.04 731.05 699.36 736.82 691.25 742.25 C 683.14 747.68 675.76 753.69 667.75 757.75 C 659.73 761.80 650.70 767.26 642.23 771.23 C 633.76 775.20 624.12 779.92 615.01 783.01 C 605.89 786.09 595.45 789.40 587.00 793.00 Z"/>
</g>
<g fill="None" fill-opacity="0.0" stroke="#FAA61D" stroke-opacity="1.00" stroke-width="0.3"><path d="
M 409.00 171.00 
C 386.86 182.32 360.45 189.97 338.92 203.92 C 317.39 217.87 301.08 229.84 281.00 247.00
C 279.20 248.91 275.60 252.01 277.00 255.00
C 266.65 259.14 258.42 272.47 252.00 282.00
C 252.77 280.92 256.17 277.45 256.00 281.00
C 251.86 282.92 261.44 287.50 262.00 289.00
C 256.93 292.68 259.24 298.33 256.00 302.00
C 256.33 299.40 254.35 298.65 254.00 297.00
C 250.46 301.30 254.04 306.74 251.00 312.00
C 255.06 312.92 254.91 307.15 258.00 306.00
C 258.66 308.97 257.06 310.38 259.00 313.00
C 261.34 312.18 260.41 308.75 263.00 308.00
C 257.66 305.74 260.80 297.96 262.00 294.00
C 266.42 296.18 264.70 296.77 265.00 301.00
C 267.59 298.61 266.28 294.96 270.00 298.00
C 272.87 297.18 271.38 293.81 273.00 292.00
C 269.04 294.75 263.03 293.89 267.00 288.00
C 283.65 293.48 292.56 270.89 307.25 260.25 C 321.94 249.60 334.83 236.56 351.70 227.70 C 368.56 218.83 384.04 209.81 403.03 203.03 C 422.01 196.24 442.67 189.78 464.00 187.00 C 485.33 184.23 513.39 180.36 536.00 184.00
C 528.91 182.63 520.22 180.86 512.00 182.00
C 513.77 179.97 517.48 181.47 520.00 181.00
C 520.82 177.93 516.70 177.95 520.00 176.00
C 517.62 175.03 515.61 173.25 513.00 173.00
C 513.25 168.96 521.32 170.27 520.00 165.00
C 517.68 167.04 515.37 168.79 512.00 168.00
C 510.86 163.38 515.24 158.19 520.00 159.00
C 513.69 155.23 510.94 162.87 504.00 159.00
C 504.00 162.00 504.00 165.00 504.00 168.00
C 495.81 170.62 501.81 159.83 496.00 159.00
C 511.15 155.11 529.81 157.27 545.00 158.00 C 560.19 158.73 577.77 163.10 592.02 165.98 C 606.27 168.85 621.04 173.28 633.68 178.32 C 646.31 183.37 657.85 188.66 670.22 194.78 C 682.59 200.89 692.64 207.99 703.75 215.25 C 714.85 222.51 724.49 231.28 734.25 239.75 C 744.01 248.23 752.95 257.24 761.75 266.25 C 770.56 275.26 779.26 287.27 786.75 296.25 C 794.24 305.23 807.54 324.23 792.77 331.77 C 778.00 339.31 769.68 318.80 762.25 309.75 C 754.82 300.70 747.73 288.47 737.75 280.25 C 727.77 272.03 719.89 260.20 709.90 253.10 C 699.91 246.00 688.45 235.17 678.00 232.00
C 694.42 243.56 709.48 255.74 725.00 269.00
C 729.98 273.25 734.79 278.07 739.00 283.00
C 747.22 292.62 758.93 303.47 764.75 314.25 C 770.57 325.02 785.24 343.97 797.25 330.25 C 809.26 316.52 791.09 301.55 784.23 290.77 C 777.37 279.99 766.63 270.40 757.75 260.25 C 748.87 250.10 737.99 241.28 727.75 232.25 C 717.51 223.21 706.45 214.88 694.75 207.25 C 683.06 199.61 671.08 193.29 657.92 187.08 C 644.77 180.86 630.75 175.22 616.32 170.68 C 601.90 166.14 584.34 162.44 569.00 160.00
C 558.49 158.33 547.98 156.00 537.00 156.00
C 535.67 156.00 534.33 156.00 533.00 156.00
C 521.07 156.00 508.14 155.48 497.00 155.00
C 466.95 156.63 437.22 162.32 409.00 171.00 Z"/>
</g>
<g fill="None" fill-opacity="0.0" stroke="#E0B45B" stroke-opacity="1.00" stroke-width="0.3"><path d="
M 533.00 156.00 
C 522.09 154.51 508.72 154.36 497.00 155.00
C 508.14 155.48 521.07 156.00 533.00 156.00 Z"/>
</g>
<g fill="None" fill-opacity="0.0" stroke="#FC9914" stroke-opacity="1.00" stroke-width="0.3"><path d="
M 536.00 184.00 
C 549.41 185.06 564.79 186.63 577.22 189.78 C 589.65 192.93 603.14 194.79 614.22 199.78 C 625.30 204.76 637.73 207.38 647.23 213.77 C 656.73 220.17 670.90 220.76 677.00 231.00
C 677.19 231.32 677.70 231.79 678.00 232.00
C 688.45 235.17 699.91 246.00 709.90 253.10 C 719.89 260.20 727.77 272.03 737.75 280.25 C 747.73 288.47 754.82 300.70 762.25 309.75 C 769.68 318.80 778.00 339.31 792.77 331.77 C 807.54 324.23 794.24 305.23 786.75 296.25 C 779.26 287.27 770.56 275.26 761.75 266.25 C 752.95 257.24 744.01 248.23 734.25 239.75 C 724.49 231.28 714.85 222.51 703.75 215.25 C 692.64 207.99 682.59 200.89 670.22 194.78 C 657.85 188.66 646.31 183.37 633.68 178.32 C 621.04 173.28 606.27 168.85 592.02 165.98 C 577.77 163.10 560.19 158.73 545.00 158.00 C 529.81 157.27 511.15 155.11 496.00 159.00
C 501.81 159.83 495.81 170.62 504.00 168.00
C 504.00 165.00 504.00 162.00 504.00 159.00
C 510.94 162.87 513.69 155.23 520.00 159.00
C 515.24 158.19 510.86 163.38 512.00 168.00
C 515.37 168.79 517.68 167.04 520.00 165.00
C 521.32 170.27 513.25 168.96 513.00 173.00
C 515.61 173.25 517.62 175.03 520.00 176.00
C 516.70 177.95 520.82 177.93 520.00 181.00
C 517.48 181.47 513.77 179.97 512.00 182.00
C 520.22 180.86 528.91 182.63 536.00 184.00 Z"/>
</g>
<g fill="None" fill-opacity="0.0" stroke="#190803" stroke-opacity="1.00" stroke-width="0.3"><path d="
M 569.00 160.00 
C 584.34 162.44 601.90 166.14 616.32 170.68 C 630.75 175.22 644.77 180.86 657.92 187.08 C 671.08 193.29 683.06 199.61 694.75 207.25 C 706.45 214.88 717.51 223.21 727.75 232.25 C 737.99 241.28 748.87 250.10 757.75 260.25 C 766.63 270.40 777.37 279.99 784.23 290.77 C 791.09 301.55 809.26 316.52 797.25 330.25 C 785.24 343.97 770.57 325.02 764.75 314.25 C 758.93 303.47 747.22 292.62 739.00 283.00
C 734.41 278.41 729.54 273.54 725.00 269.00
C 709.48 255.74 694.42 243.56 678.00 232.00
C 677.70 231.79 677.19 231.32 677.00 231.00
C 651.58 214.26 620.42 200.95 591.00 194.00
C 591.25 195.53 593.55 196.18 593.00 198.00
C 602.88 197.32 613.66 202.50 622.92 206.08 C 632.19 209.66 641.63 214.42 650.25 217.75 C 658.87 221.08 666.71 227.96 674.78 232.22 C 682.84 236.49 690.97 242.29 697.75 248.25 C 704.54 254.21 715.66 258.77 716.00 267.00
C 722.60 264.80 726.67 274.44 732.75 279.25 C 738.84 284.05 743.00 290.81 748.75 296.25 C 754.50 301.68 756.88 308.07 761.75 314.25 C 766.61 320.44 770.62 326.03 776.25 332.75 C 781.87 339.48 793.54 335.34 800.00 332.00
C 805.52 322.52 806.18 316.09 798.75 308.25 C 791.33 300.40 788.48 292.84 781.75 285.25 C 775.02 277.66 769.89 270.51 763.25 263.75 C 756.61 256.99 750.05 250.47 743.25 243.75 C 736.44 237.03 729.07 231.60 722.08 224.92 C 715.09 218.24 707.42 214.21 700.08 208.92 C 692.75 203.63 680.86 199.75 677.00 192.00
C 673.79 194.33 668.85 191.44 669.00 188.00
C 664.55 190.01 657.08 185.56 656.00 182.00
C 645.54 181.12 634.33 174.82 623.68 171.32 C 613.03 167.83 599.40 165.38 591.00 160.00
C 583.71 160.78 576.05 159.98 569.00 160.00 Z"/>
</g>
<g fill="None" fill-opacity="0.0" stroke="#E8C24B" stroke-opacity="1.00" stroke-width="0.3"><path d="
M 281.00 245.00 
C 277.08 248.92 272.87 253.13 269.00 257.00
C 243.95 286.31 225.42 309.68 208.77 344.77 C 192.12 379.86 179.70 418.55 176.00 459.00 C 172.30 499.45 177.59 553.95 189.07 590.93 C 200.55 627.91 216.31 658.92 237.25 689.75 C 258.19 720.59 282.46 740.24 310.00 764.00
C 283.62 737.37 257.04 717.91 236.25 685.75 C 215.46 653.60 198.13 619.93 188.07 581.93 C 178.02 543.92 172.63 487.31 178.98 446.98 C 185.32 406.64 196.81 367.54 215.92 333.92 C 235.02 300.29 251.18 272.48 281.00 247.00
C 301.08 229.84 317.39 217.87 338.92 203.92 C 360.45 189.97 386.86 182.32 409.00 171.00
C 360.77 185.84 319.84 211.81 281.00 245.00 Z"/>
</g>
<g fill="None" fill-opacity="0.0" stroke="#FAB521" stroke-opacity="1.00" stroke-width="0.3"><path d="
M 281.00 247.00 
C 251.18 272.48 235.02 300.29 215.92 333.92 C 196.81 367.54 185.32 406.64 178.98 446.98 C 172.63 487.31 178.02 543.92 188.07 581.93 C 198.13 619.93 215.46 653.60 236.25 685.75 C 257.04 717.91 283.62 737.37 310.00 764.00
C 342.25 791.83 375.66 803.98 416.33 817.67 C 456.99 831.36 514.43 835.42 559.00 829.00
C 535.36 829.17 506.09 831.99 482.00 829.00 C 457.91 826.01 434.96 821.85 412.98 815.02 C 390.99 808.20 376.27 801.36 358.00 793.00
C 355.37 789.63 359.30 791.59 360.00 789.00
C 357.55 785.74 354.95 790.95 352.00 790.00
C 344.29 781.06 332.87 779.01 325.00 771.00
C 327.51 768.29 328.81 764.46 328.00 760.00
C 321.05 761.85 326.37 752.69 322.00 751.00
C 324.09 749.80 327.45 750.82 329.00 749.00
C 327.01 747.08 323.69 747.74 322.00 746.00
C 331.19 739.01 340.15 757.43 352.00 758.00
C 353.28 760.47 352.13 762.32 352.00 765.00
C 360.13 760.86 370.72 770.61 380.68 774.32 C 390.63 778.03 400.01 784.94 411.23 787.77 C 422.45 790.60 434.39 794.66 446.22 796.78 C 458.05 798.90 473.34 802.57 485.00 801.00
C 395.05 792.29 307.59 744.41 257.00 666.00
C 240.75 647.35 231.75 627.78 222.69 604.31 C 213.64 580.83 205.90 553.57 204.02 526.98 C 202.14 500.38 199.70 462.22 208.00 437.00
C 213.30 420.90 216.13 400.66 222.93 384.93 C 229.72 369.20 236.00 353.09 244.77 338.77 C 253.54 324.46 261.61 311.90 272.25 299.25 C 282.88 286.59 292.23 275.05 304.75 263.75 C 317.27 252.45 329.75 244.36 343.70 234.70 C 357.65 225.04 371.10 218.55 387.08 211.08 C 403.05 203.60 419.71 199.02 437.22 193.22 C 454.73 187.42 478.54 188.93 497.00 185.00
C 497.83 184.82 498.21 184.17 499.00 184.00
C 513.38 180.94 530.03 186.06 544.01 185.99 C 557.99 185.92 571.28 189.75 584.00 193.00
C 586.48 193.17 588.67 193.45 591.00 194.00
C 620.42 200.95 651.58 214.26 677.00 231.00
C 670.90 220.76 656.73 220.17 647.23 213.77 C 637.73 207.38 625.30 204.76 614.22 199.78 C 603.14 194.79 589.65 192.93 577.22 189.78 C 564.79 186.63 549.41 185.06 536.00 184.00
C 513.39 180.36 485.33 184.23 464.00 187.00 C 442.67 189.78 422.01 196.24 403.03 203.03 C 384.04 209.81 368.56 218.83 351.70 227.70 C 334.83 236.56 321.94 249.60 307.25 260.25 C 292.56 270.89 283.65 293.48 267.00 288.00
C 263.03 293.89 269.04 294.75 273.00 292.00
C 271.38 293.81 272.87 297.18 270.00 298.00
C 266.28 294.96 267.59 298.61 265.00 301.00
C 264.70 296.77 266.42 296.18 262.00 294.00
C 260.80 297.96 257.66 305.74 263.00 308.00
C 260.41 308.75 261.34 312.18 259.00 313.00
C 257.06 310.38 258.66 308.97 258.00 306.00
C 254.91 307.15 255.06 312.92 251.00 312.00
C 254.04 306.74 250.46 301.30 254.00 297.00
C 254.35 298.65 256.33 299.40 256.00 302.00
C 259.24 298.33 256.93 292.68 262.00 289.00
C 261.44 287.50 251.86 282.92 256.00 281.00
C 256.17 277.45 252.77 280.92 252.00 282.00
C 258.42 272.47 266.65 259.14 277.00 255.00
C 275.60 252.01 279.20 248.91 281.00 247.00 Z"/>
</g>
<g fill="None" fill-opacity="0.0" stroke="#190701" stroke-opacity="1.00" stroke-width="0.3"><path d="
M 584.00 193.00 
C 571.28 189.75 557.99 185.92 544.01 185.99 C 530.03 186.06 513.38 180.94 499.00 184.00
C 527.51 184.20 556.10 191.10 584.00 193.00 Z"/>
</g>
<g fill="None" fill-opacity="0.0" stroke="#170A01" stroke-opacity="1.00" stroke-width="0.3"><path d="
M 208.00 437.00 
C 203.57 467.33 202.18 500.20 206.00 531.00
C 203.42 495.78 205.90 447.99 215.01 415.01 C 224.12 382.03 236.68 352.88 254.70 325.70 C 272.71 298.51 289.21 279.81 314.70 258.70 C 340.19 237.58 363.35 221.81 394.32 209.32 C 425.30 196.83 464.53 186.13 500.00 187.00
C 499.58 186.27 497.61 185.15 497.00 185.00
C 478.54 188.93 454.73 187.42 437.22 193.22 C 419.71 199.02 403.05 203.60 387.08 211.08 C 371.10 218.55 357.65 225.04 343.70 234.70 C 329.75 244.36 317.27 252.45 304.75 263.75 C 292.23 275.05 282.88 286.59 272.25 299.25 C 261.61 311.90 253.54 324.46 244.77 338.77 C 236.00 353.09 229.72 369.20 222.93 384.93 C 216.13 400.66 213.30 420.90 208.00 437.00 Z"/>
</g>
<g fill="None" fill-opacity="0.0" stroke="#5F470B" stroke-opacity="1.00" stroke-width="0.3"><path d="
M 269.00 257.00 
C 272.87 253.13 277.08 248.92 281.00 245.00
C 276.76 248.62 272.66 252.71 269.00 257.00 Z"/>
</g>
<g fill="None" fill-opacity="0.0" stroke="#7E5613" stroke-opacity="1.00" stroke-width="0.3"><path d="
M 739.00 283.00 
C 734.79 278.07 729.98 273.25 725.00 269.00
C 729.54 273.54 734.41 278.41 739.00 283.00 Z"/>
</g>
<g fill="None" fill-opacity="0.0" stroke="#011703" stroke-opacity="1.00" stroke-width="0.3"><path d="
M 484.00 310.00 
C 506.35 307.23 530.34 305.17 553.00 309.00
C 553.54 309.31 551.19 305.84 545.00 307.00 C 538.81 308.15 540.97 304.48 533.00 305.00 C 525.03 305.52 514.04 304.51 506.00 305.00 C 497.97 305.49 490.78 307.65 484.00 310.00 Z"/>
</g>
<g fill="None" fill-opacity="0.0" stroke="#76C535" stroke-opacity="1.00" stroke-width="0.3"><path d="
M 484.00 310.00 
C 479.88 310.51 476.14 310.75 472.00 311.00
C 462.49 313.04 451.46 316.55 442.00 320.00
C 434.68 324.04 424.23 328.50 415.77 332.77 C 407.31 337.04 398.81 341.62 391.25 347.25 C 383.70 352.89 376.74 358.37 369.75 364.75 C 362.77 371.14 356.78 377.45 350.75 384.75 C 344.72 392.06 339.07 399.81 334.25 408.25 C 329.42 416.68 325.85 425.33 321.69 434.69 C 317.54 444.06 315.25 453.79 312.22 464.22 C 309.19 474.65 309.27 487.59 308.00 499.00 C 306.73 510.41 307.52 524.95 308.78 536.22 C 310.04 547.50 312.44 558.35 315.32 568.68 C 318.20 579.01 321.57 587.80 325.77 597.23 C 329.97 606.66 333.72 614.39 338.92 623.08 C 344.12 631.78 349.44 637.28 354.76 644.25 C 360.08 651.22 365.98 657.57 372.75 664.25 C 379.53 670.93 386.47 676.30 393.75 682.25 C 401.03 688.20 409.71 692.04 417.23 697.77 C 424.75 703.50 435.63 705.47 443.08 710.92 C 450.52 716.38 466.29 715.55 472.00 722.00
C 472.25 722.28 472.00 723.00 472.00 723.00
C 474.11 723.19 475.98 723.56 478.00 724.00
C 489.55 726.50 505.62 730.63 517.22 730.78 C 528.82 730.93 552.10 736.31 554.00 721.00
C 553.51 712.73 552.56 708.12 544.00 706.00
C 539.57 705.45 533.80 705.37 530.00 705.00
C 511.03 705.00 489.37 700.32 472.07 694.93 C 454.78 689.54 441.42 681.98 426.08 672.92 C 410.74 663.85 396.23 655.44 394.00 637.00
C 394.22 637.54 392.07 627.88 393.00 622.00 C 393.93 616.12 393.63 610.38 394.98 603.98 C 396.32 597.57 395.59 592.98 397.98 585.98 C 400.37 578.98 398.45 578.79 401.99 569.99 C 405.54 561.20 409.58 549.81 414.31 541.31 C 419.03 532.80 424.02 523.64 429.77 515.77 C 435.52 507.90 441.23 499.68 447.30 492.30 C 453.37 484.93 450.71 487.33 457.25 481.25 C 463.79 475.16 472.36 467.27 479.00 464.00
C 498.27 449.52 520.62 438.76 544.00 434.00
C 542.07 448.90 537.00 466.03 531.69 479.69 C 526.39 493.36 519.11 505.30 510.75 516.75 C 502.38 528.19 492.57 536.95 482.25 546.25 C 471.92 555.55 457.25 561.54 446.77 569.77 C 436.29 578.00 415.92 580.02 415.01 596.01 C 414.10 612.00 435.56 615.79 448.07 620.93 C 460.59 626.06 481.44 631.63 496.00 632.00
C 552.44 635.06 602.73 609.64 635.75 563.75 C 668.76 517.85 681.21 455.02 669.99 399.01 C 658.77 343.00 603.10 317.47 553.00 309.00
C 530.34 305.17 506.35 307.23 484.00 310.00
M 520.00 605.00 
C 512.74 605.88 504.17 605.69 497.00 605.00
C 483.01 605.00 466.27 601.87 456.00 594.00
C 523.09 562.26 570.69 492.20 572.00 418.00
C 570.43 407.03 557.24 407.60 548.00 408.00 C 538.76 408.40 527.07 409.96 519.00 414.00
C 493.15 426.93 467.51 437.20 446.25 459.25 C 424.99 481.30 407.96 498.76 394.70 526.69 C 381.43 554.63 369.22 588.44 370.00 621.00
C 354.59 611.91 350.93 595.07 343.68 578.32 C 336.43 561.57 331.92 540.31 331.00 521.00 C 330.08 501.69 332.67 475.90 338.78 458.78 C 344.88 441.65 350.91 425.35 361.30 411.30 C 371.70 397.26 381.54 385.61 394.75 374.75 C 407.96 363.89 423.11 354.59 438.00 350.00
C 468.98 336.47 504.81 331.60 540.00 334.00
C 580.47 336.76 630.24 357.47 642.92 400.08 C 655.61 442.68 643.63 501.30 621.23 537.23 C 598.83 573.16 562.59 604.15 520.00 605.00 Z"/>
</g>
<g fill="None" fill-opacity="0.0" stroke="#011603" stroke-opacity="1.00" stroke-width="0.3"><path d="
M 472.00 723.00 
C 472.00 723.00 472.25 722.28 472.00 722.00
C 443.14 718.59 417.45 699.53 393.75 683.25 C 370.06 666.97 352.44 647.31 336.75 622.25 C 321.05 597.19 311.03 566.30 307.02 535.97 C 303.01 505.65 308.45 461.77 320.32 434.32 C 332.19 406.87 346.20 384.85 368.25 364.25 C 390.30 343.65 414.42 330.05 442.00 320.00
C 451.46 316.55 462.49 313.04 472.00 311.00
C 453.14 310.80 436.90 324.57 419.00 324.00
C 423.12 328.09 411.02 331.85 405.23 335.23 C 399.43 338.61 392.43 343.17 386.70 347.70 C 380.96 352.22 375.49 356.74 370.03 361.03 C 364.58 365.32 359.83 370.82 354.23 376.23 C 348.63 381.64 344.82 386.87 340.77 393.77 C 336.72 400.67 331.83 404.69 328.75 411.75 C 325.68 418.82 322.38 425.70 318.98 432.98 C 315.57 440.25 314.56 447.64 311.78 455.78 C 309.00 463.92 307.39 472.05 305.98 480.98 C 304.56 489.90 304.86 501.63 305.00 511.00 C 305.14 520.37 304.26 531.53 305.74 540.26 C 307.22 548.98 308.99 557.58 311.02 565.98 C 313.06 574.37 315.89 581.97 319.01 588.99 C 322.12 596.01 324.11 603.78 327.74 610.26 C 331.38 616.73 335.05 623.47 339.30 629.70 C 343.54 635.94 347.54 640.71 352.23 646.77 C 356.93 652.83 362.39 657.46 367.23 662.77 C 372.07 668.08 377.13 673.85 383.25 677.75 C 389.38 681.64 394.30 687.05 400.32 690.68 C 406.34 694.31 413.09 698.48 419.32 702.68 C 425.55 706.88 435.22 708.31 436.00 714.00
C 449.24 715.67 458.82 721.81 472.00 723.00 Z"/>
</g>
<g fill="None" fill-opacity="0.0" stroke="#A1D766" stroke-opacity="1.00" stroke-width="0.3"><path d="
M 472.00 722.00 
C 466.29 715.55 450.52 716.38 443.08 710.92 C 435.63 705.47 424.75 703.50 417.23 697.77 C 409.71 692.04 401.03 688.20 393.75 682.25 C 386.47 676.30 379.53 670.93 372.75 664.25 C 365.98 657.57 360.08 651.22 354.76 644.25 C 349.44 637.28 344.12 631.78 338.92 623.08 C 333.72 614.39 329.97 606.66 325.77 597.23 C 321.57 587.80 318.20 579.01 315.32 568.68 C 312.44 558.35 310.04 547.50 308.78 536.22 C 307.52 524.95 306.73 510.41 308.00 499.00 C 309.27 487.59 309.19 474.65 312.22 464.22 C 315.25 453.79 317.54 444.06 321.69 434.69 C 325.85 425.33 329.42 416.68 334.25 408.25 C 339.07 399.81 344.72 392.06 350.75 384.75 C 356.78 377.45 362.77 371.14 369.75 364.75 C 376.74 358.37 383.70 352.89 391.25 347.25 C 398.81 341.62 407.31 337.04 415.77 332.77 C 424.23 328.50 434.68 324.04 442.00 320.00
C 414.42 330.05 390.30 343.65 368.25 364.25 C 346.20 384.85 332.19 406.87 320.32 434.32 C 308.45 461.77 303.01 505.65 307.02 535.97 C 311.03 566.30 321.05 597.19 336.75 622.25 C 352.44 647.31 370.06 666.97 393.75 683.25 C 417.45 699.53 443.14 718.59 472.00 722.00 Z"/>
</g>
<g fill="None" fill-opacity="0.0" stroke="#021704" stroke-opacity="1.00" stroke-width="0.3"><path d="
M 438.00 350.00 
C 378.50 375.98 333.00 436.96 333.00 503.00
C 333.00 509.67 333.00 516.33 333.00 523.00
C 333.00 557.75 347.23 593.72 369.00 620.00
C 370.58 530.87 434.14 442.58 519.00 414.00
C 527.07 409.96 538.76 408.40 548.00 408.00 C 557.24 407.60 570.43 407.03 572.00 418.00
C 572.83 403.83 552.78 406.92 541.00 407.00 C 529.22 407.08 516.13 412.34 505.90 416.90 C 495.68 421.47 484.97 425.32 475.99 430.99 C 467.01 436.66 459.61 444.77 450.75 450.75 C 441.90 456.74 437.84 468.34 428.00 469.00
C 430.39 472.53 425.83 476.08 423.25 478.25 C 420.66 480.41 419.76 486.84 416.00 483.00
C 416.59 486.09 415.70 490.11 412.00 488.00
C 408.86 501.90 398.15 510.39 392.68 524.68 C 387.21 538.97 378.56 549.92 375.03 565.03 C 371.50 580.14 367.76 599.53 366.00 615.00
C 361.70 612.52 364.03 608.65 359.70 605.30 C 355.36 601.96 359.55 599.07 360.00 595.00
C 350.44 598.06 351.17 584.47 347.01 576.99 C 342.85 569.52 340.63 559.08 338.22 549.78 C 335.81 540.47 334.92 527.35 335.00 517.00 C 335.08 506.65 335.01 495.69 336.75 485.75 C 338.50 475.82 338.89 464.67 342.97 455.97 C 347.06 447.27 349.74 439.39 353.00 430.00
C 357.60 432.20 358.05 419.94 362.71 415.71 C 367.36 411.47 370.67 403.59 375.75 398.75 C 380.83 393.91 384.27 386.86 390.08 383.08 C 395.90 379.30 400.46 370.27 408.00 372.00
C 409.63 366.89 418.21 359.90 425.74 357.74 C 433.28 355.59 439.71 350.41 448.08 347.08 C 456.44 343.74 466.46 342.75 476.07 340.07 C 485.68 337.40 496.15 337.35 506.08 335.08 C 516.01 332.81 530.59 337.45 540.00 334.00
C 504.81 331.60 468.98 336.47 438.00 350.00 Z"/>
</g>
<g fill="None" fill-opacity="0.0" stroke="#000C18" stroke-opacity="1.00" stroke-width="0.3"><path d="
M 572.00 418.00 
C 570.69 492.20 523.09 562.26 456.00 594.00
C 466.27 601.87 483.01 605.00 497.00 605.00
C 504.66 605.00 512.34 605.15 520.00 605.00
C 562.59 604.15 598.83 573.16 621.23 537.23 C 643.63 501.30 655.61 442.68 642.92 400.08 C 630.24 357.47 580.47 336.76 540.00 334.00
C 530.59 337.45 516.01 332.81 506.08 335.08 C 496.15 337.35 485.68 337.40 476.07 340.07 C 466.46 342.75 456.44 343.74 448.08 347.08 C 439.71 350.41 433.28 355.59 425.74 357.74 C 418.21 359.90 409.63 366.89 408.00 372.00
C 400.46 370.27 395.90 379.30 390.08 383.08 C 384.27 386.86 380.83 393.91 375.75 398.75 C 370.67 403.59 367.36 411.47 362.71 415.71 C 358.05 419.94 357.60 432.20 353.00 430.00
C 349.74 439.39 347.06 447.27 342.97 455.97 C 338.89 464.67 338.50 475.82 336.75 485.75 C 335.01 495.69 335.08 506.65 335.00 517.00 C 334.92 527.35 335.81 540.47 338.22 549.78 C 340.63 559.08 342.85 569.52 347.01 576.99 C 351.17 584.47 350.44 598.06 360.00 595.00
C 359.55 599.07 355.36 601.96 359.70 605.30 C 364.03 608.65 361.70 612.52 366.00 615.00
C 367.76 599.53 371.50 580.14 375.03 565.03 C 378.56 549.92 387.21 538.97 392.68 524.68 C 398.15 510.39 408.86 501.90 412.00 488.00
C 415.70 490.11 416.59 486.09 416.00 483.00
C 419.76 486.84 420.66 480.41 423.25 478.25 C 425.83 476.08 430.39 472.53 428.00 469.00
C 437.84 468.34 441.90 456.74 450.75 450.75 C 459.61 444.77 467.01 436.66 475.99 430.99 C 484.97 425.32 495.68 421.47 505.90 416.90 C 516.13 412.34 529.22 407.08 541.00 407.00 C 552.78 406.92 572.83 403.83 572.00 418.00 Z"/>
</g>
<g fill="None" fill-opacity="0.0" stroke="#A0D766" stroke-opacity="1.00" stroke-width="0.3"><path d="
M 519.00 414.00 
C 434.14 442.58 370.58 530.87 369.00 620.00
C 347.23 593.72 333.00 557.75 333.00 523.00
C 332.39 516.71 332.40 509.23 333.00 503.00
C 333.00 436.96 378.50 375.98 438.00 350.00
C 423.11 354.59 407.96 363.89 394.75 374.75 C 381.54 385.61 371.70 397.26 361.30 411.30 C 350.91 425.35 344.88 441.65 338.78 458.78 C 332.67 475.90 330.08 501.69 331.00 521.00 C 331.92 540.31 336.43 561.57 343.68 578.32 C 350.93 595.07 354.59 611.91 370.00 621.00
C 369.22 588.44 381.43 554.63 394.70 526.69 C 407.96 498.76 424.99 481.30 446.25 459.25 C 467.51 437.20 493.15 426.93 519.00 414.00 Z"/>
</g>
<g fill="None" fill-opacity="0.0" stroke="#011704" stroke-opacity="1.00" stroke-width="0.3"><path d="
M 479.00 464.00 
C 429.32 501.31 396.33 562.96 394.00 624.00
C 398.73 607.47 399.70 584.20 406.07 568.07 C 412.45 551.95 418.80 537.70 427.75 523.75 C 436.69 509.79 445.87 497.92 456.23 486.23 C 466.60 474.54 479.85 464.72 493.92 455.92 C 507.99 447.12 524.98 438.76 542.00 437.00
C 538.16 441.83 541.57 456.17 536.00 452.00
C 537.99 457.99 535.67 466.74 532.92 471.92 C 530.16 477.10 529.86 486.37 524.00 486.00
C 524.93 492.88 521.44 497.23 518.75 502.75 C 516.06 508.27 510.80 512.90 506.00 516.00
C 508.82 520.32 501.42 526.89 499.00 521.00
C 500.79 526.10 497.62 534.71 490.00 532.00
C 492.44 539.07 479.92 547.60 475.00 545.00
C 475.42 551.02 467.14 555.41 462.89 557.89 C 458.64 560.37 453.18 566.93 448.00 563.00
C 446.91 569.74 438.37 571.57 434.70 574.70 C 431.02 577.82 421.78 583.26 419.00 582.00
C 416.11 587.50 411.68 594.46 413.08 601.92 C 414.48 609.38 425.31 610.63 425.00 616.00
C 438.58 618.56 446.79 622.38 458.78 626.22 C 470.77 630.06 483.19 633.24 496.00 632.00
C 481.44 631.63 460.59 626.06 448.07 620.93 C 435.56 615.79 414.10 612.00 415.01 596.01 C 415.92 580.02 436.29 578.00 446.77 569.77 C 457.25 561.54 471.92 555.55 482.25 546.25 C 492.57 536.95 502.38 528.19 510.75 516.75 C 519.11 505.30 526.39 493.36 531.69 479.69 C 537.00 466.03 542.07 448.90 544.00 434.00
C 520.62 438.76 498.27 449.52 479.00 464.00 Z"/>
</g>
<g fill="None" fill-opacity="0.0" stroke="#E6C34C" stroke-opacity="1.00" stroke-width="0.3"><path d="
M 257.00 666.00 
C 230.29 624.60 212.08 580.01 206.00 531.00
C 202.18 500.20 203.57 467.33 208.00 437.00
C 199.70 462.22 202.14 500.38 204.02 526.98 C 205.90 553.57 213.64 580.83 222.69 604.31 C 231.75 627.78 240.75 647.35 257.00 666.00 Z"/>
</g>
<g fill="None" fill-opacity="0.0" stroke="#9DD867" stroke-opacity="1.00" stroke-width="0.3"><path d="
M 394.00 637.00 
C 393.50 632.87 393.84 628.16 394.00 624.00
C 396.33 562.96 429.32 501.31 479.00 464.00
C 472.36 467.27 463.79 475.16 457.25 481.25 C 450.71 487.33 453.37 484.93 447.30 492.30 C 441.23 499.68 435.52 507.90 429.77 515.77 C 424.02 523.64 419.03 532.80 414.31 541.31 C 409.58 549.81 405.54 561.20 401.99 569.99 C 398.45 578.79 400.37 578.98 397.98 585.98 C 395.59 592.98 396.32 597.57 394.98 603.98 C 393.63 610.38 393.93 616.12 393.00 622.00 C 392.07 627.88 394.22 637.54 394.00 637.00 Z"/>
</g>
<g fill="None" fill-opacity="0.0" stroke="#4C712E" stroke-opacity="1.00" stroke-width="0.3"><path d="
M 333.00 523.00 
C 333.00 516.33 333.00 509.67 333.00 503.00
C 332.40 509.23 332.39 516.71 333.00 523.00 Z"/>
</g>
<g fill="None" fill-opacity="0.0" stroke="#335C22" stroke-opacity="1.00" stroke-width="0.3"><path d="
M 520.00 605.00 
C 512.34 605.15 504.66 605.00 497.00 605.00
C 504.17 605.69 512.74 605.88 520.00 605.00 Z"/>
</g>
<g fill="None" fill-opacity="0.0" stroke="#190602" stroke-opacity="1.00" stroke-width="0.3"><path d="
M 806.00 619.00 
C 785.31 616.82 780.09 648.05 800.78 652.22 C 821.46 656.39 826.41 621.15 806.00 619.00
M 817.00 640.00 
C 814.02 651.01 800.74 654.48 792.75 646.25 C 784.76 638.01 789.70 622.37 801.00 621.00
C 812.80 619.56 819.73 629.92 817.00 640.00 Z"/>
</g>
<g fill="None" fill-opacity="0.0" stroke="#DFA649" stroke-opacity="1.00" stroke-width="0.3"><path d="
M 817.00 640.00 
C 813.09 649.73 801.02 652.73 793.75 645.25 C 786.48 637.76 791.11 623.45 801.00 621.00
C 789.70 622.37 784.76 638.01 792.75 646.25 C 800.74 654.48 814.02 651.01 817.00 640.00 Z"/>
</g>
<g fill="None" fill-opacity="0.0" stroke="#F7951A" stroke-opacity="1.00" stroke-width="0.3"><path d="
M 817.00 640.00 
C 819.73 629.92 812.80 619.56 801.00 621.00
C 791.11 623.45 786.48 637.76 793.75 645.25 C 801.02 652.73 813.09 649.73 817.00 640.00 Z"/>
</g>
<g fill="None" fill-opacity="0.0" stroke="#E0A543" stroke-opacity="1.00" stroke-width="0.3"><path d="
M 587.00 793.00 
C 576.45 795.82 564.46 798.51 554.00 800.00
C 569.08 800.00 585.25 795.00 599.07 791.07 C 612.90 787.14 626.47 781.88 639.22 776.22 C 651.98 770.57 662.33 764.13 674.23 757.23 C 686.13 750.33 695.46 742.74 706.70 734.70 C 717.94 726.65 723.92 718.66 734.75 708.75 C 745.59 698.85 748.93 690.56 761.08 680.08 C 773.24 669.60 787.93 688.75 777.25 700.25 C 766.56 711.75 762.29 719.89 751.75 729.75 C 741.22 739.61 733.58 746.36 723.25 755.25 C 712.92 764.15 701.93 770.34 692.00 779.00
C 704.13 771.49 718.93 762.08 729.25 752.25 C 739.57 742.41 754.12 732.64 762.25 721.25 C 770.37 709.85 791.49 696.92 780.75 681.25 C 770.02 665.58 752.62 685.64 744.30 696.30 C 735.99 706.97 723.16 718.74 712.25 728.25 C 701.33 737.76 688.50 746.71 675.75 754.75 C 662.99 762.78 648.20 770.51 634.02 777.03 C 619.85 783.54 602.25 788.93 587.00 793.00 Z"/>
</g>
<g fill="None" fill-opacity="0.0" stroke="#FC9E15" stroke-opacity="1.00" stroke-width="0.3"><path d="
M 554.00 800.00 
C 531.28 800.00 508.06 803.23 485.00 801.00
C 473.34 802.57 458.05 798.90 446.22 796.78 C 434.39 794.66 422.45 790.60 411.23 787.77 C 400.01 784.94 390.63 778.03 380.68 774.32 C 370.72 770.61 360.13 760.86 352.00 765.00
C 352.13 762.32 353.28 760.47 352.00 758.00
C 340.15 757.43 331.19 739.01 322.00 746.00
C 323.69 747.74 327.01 747.08 329.00 749.00
C 327.45 750.82 324.09 749.80 322.00 751.00
C 326.37 752.69 321.05 761.85 328.00 760.00
C 328.81 764.46 327.51 768.29 325.00 771.00
C 332.87 779.01 344.29 781.06 352.00 790.00
C 354.95 790.95 357.55 785.74 360.00 789.00
C 359.30 791.59 355.37 789.63 358.00 793.00
C 376.27 801.36 390.99 808.20 412.98 815.02 C 434.96 821.85 457.91 826.01 482.00 829.00 C 506.09 831.99 535.36 829.17 559.00 829.00
C 561.04 828.71 562.93 828.36 565.00 828.00
C 581.33 822.53 600.71 818.93 617.67 813.67 C 634.63 808.41 649.25 799.58 666.00 794.00
C 675.36 790.88 683.76 784.10 692.00 779.00
C 701.93 770.34 712.92 764.15 723.25 755.25 C 733.58 746.36 741.22 739.61 751.75 729.75 C 762.29 719.89 766.56 711.75 777.25 700.25 C 787.93 688.75 773.24 669.60 761.08 680.08 C 748.93 690.56 745.59 698.85 734.75 708.75 C 723.92 718.66 717.94 726.65 706.70 734.70 C 695.46 742.74 686.13 750.33 674.23 757.23 C 662.33 764.13 651.98 770.57 639.22 776.22 C 626.47 781.88 612.90 787.14 599.07 791.07 C 585.25 795.00 569.08 800.00 554.00 800.00 Z"/>
</g>
<g fill="None" fill-opacity="0.0" stroke="#214712" stroke-opacity="1.00" stroke-width="0.3"><path d="
M 544.00 706.00 
C 539.88 704.98 534.84 705.00 530.00 705.00
C 533.80 705.37 539.57 705.45 544.00 706.00 Z"/>
</g>
<g fill="None" fill-opacity="0.0" stroke="#011805" stroke-opacity="1.00" stroke-width="0.3"><path d="
M 478.00 724.00 
C 481.06 727.91 474.99 727.35 474.00 730.00
C 476.36 729.85 481.14 731.02 480.00 727.00
C 493.34 728.00 508.35 732.79 521.00 733.00 C 533.65 733.21 554.93 736.77 554.00 721.00
C 552.10 736.31 528.82 730.93 517.22 730.78 C 505.62 730.63 489.55 726.50 478.00 724.00 Z"/>
</g>
<g fill="None" fill-opacity="0.0" stroke="#E2A842" stroke-opacity="1.00" stroke-width="0.3"><path d="
M 565.00 828.00 
C 600.85 821.84 633.68 809.98 666.00 794.00
C 649.25 799.58 634.63 808.41 617.67 813.67 C 600.71 818.93 581.33 822.53 565.00 828.00 Z"/>
</g>
<g fill="#000C19" fill-opacity="1.00" stroke="None">
<path d="
M 0.00 1024.00 
L 1024.00 1024.00
L 1024.00 0.00
L 0.00 0.00
L 0.00 1024.00
M 537.00 156.00 
C 547.98 156.00 558.49 158.33 569.00 160.00
C 576.05 159.98 583.71 160.78 591.00 160.00
C 599.40 165.38 613.03 167.83 623.68 171.32 C 634.33 174.82 645.54 181.12 656.00 182.00
C 657.08 185.56 664.55 190.01 669.00 188.00
C 668.85 191.44 673.79 194.33 677.00 192.00
C 680.86 199.75 692.75 203.63 700.08 208.92 C 707.42 214.21 715.09 218.24 722.08 224.92 C 729.07 231.60 736.44 237.03 743.25 243.75 C 750.05 250.47 756.61 256.99 763.25 263.75 C 769.89 270.51 775.02 277.66 781.75 285.25 C 788.48 292.84 791.33 300.40 798.75 308.25 C 806.18 316.09 805.52 322.52 800.00 332.00
C 793.54 335.34 781.87 339.48 776.25 332.75 C 770.62 326.03 766.61 320.44 761.75 314.25 C 756.88 308.07 754.50 301.68 748.75 296.25 C 743.00 290.81 738.84 284.05 732.75 279.25 C 726.67 274.44 722.60 264.80 716.00 267.00
C 715.66 258.77 704.54 254.21 697.75 248.25 C 690.97 242.29 682.84 236.49 674.78 232.22 C 666.71 227.96 658.87 221.08 650.25 217.75 C 641.63 214.42 632.19 209.66 622.92 206.08 C 613.66 202.50 602.88 197.32 593.00 198.00
C 593.55 196.18 591.25 195.53 591.00 194.00
C 588.67 193.45 586.48 193.17 584.00 193.00
C 556.10 191.10 527.51 184.20 499.00 184.00
C 498.21 184.17 497.83 184.82 497.00 185.00
C 497.61 185.15 499.58 186.27 500.00 187.00
C 464.53 186.13 425.30 196.83 394.32 209.32 C 363.35 221.81 340.19 237.58 314.70 258.70 C 289.21 279.81 272.71 298.51 254.70 325.70 C 236.68 352.88 224.12 382.03 215.01 415.01 C 205.90 447.99 203.42 495.78 206.00 531.00
C 212.08 580.01 230.29 624.60 257.00 666.00
C 307.59 744.41 395.05 792.29 485.00 801.00
C 508.06 803.23 531.28 800.00 554.00 800.00
C 564.46 798.51 576.45 795.82 587.00 793.00
C 595.45 789.40 605.89 786.09 615.01 783.01 C 624.12 779.92 633.76 775.20 642.23 771.23 C 650.70 767.26 659.73 761.80 667.75 757.75 C 675.76 753.69 683.14 747.68 691.25 742.25 C 699.36 736.82 706.04 731.05 712.92 724.92 C 719.80 718.78 726.34 713.39 732.75 706.75 C 739.16 700.11 745.24 693.43 750.90 685.90 C 756.56 678.37 765.68 670.37 775.25 674.75 C 784.81 679.14 788.35 693.50 781.69 700.69 C 775.04 707.89 769.81 715.02 764.08 722.08 C 758.35 729.14 751.05 733.33 744.30 740.30 C 737.55 747.27 730.89 752.92 723.75 758.75 C 716.62 764.58 708.84 769.87 700.97 774.97 C 693.11 780.08 685.80 786.36 677.75 790.75 C 669.70 795.15 659.06 798.66 651.31 803.31 C 643.55 807.95 630.92 809.58 627.00 816.00
C 610.81 816.61 596.48 824.08 578.99 826.99 C 561.51 829.90 542.33 833.33 524.00 833.00 C 505.67 832.67 482.28 833.43 465.00 831.00 C 447.72 828.56 432.12 823.20 415.98 819.02 C 399.83 814.85 385.63 809.15 370.97 803.03 C 356.31 796.90 344.85 786.77 332.00 784.00
C 331.42 777.36 320.03 775.62 315.08 770.91 C 310.13 766.21 302.41 759.97 296.75 755.25 C 291.10 750.53 283.60 744.19 277.92 739.08 C 272.24 733.97 267.46 727.09 261.10 721.90 C 254.74 716.71 252.00 706.04 244.00 706.00
C 246.32 700.43 239.50 696.71 236.75 692.25 C 234.00 687.78 232.06 681.18 226.00 682.00
C 226.02 669.23 214.03 658.60 209.08 645.92 C 204.12 633.25 197.14 623.27 192.94 609.92 C 188.73 596.56 184.41 581.64 181.01 566.99 C 177.61 552.35 175.33 534.01 174.02 517.98 C 172.72 501.94 172.16 481.11 173.98 464.98 C 175.79 448.84 177.18 430.50 181.00 416.00 C 184.81 401.50 189.24 387.81 194.31 374.31 C 199.37 360.80 205.55 348.12 211.32 335.32 C 217.10 322.52 227.27 312.58 231.00 299.00
C 237.95 295.15 243.14 284.82 249.75 277.75 C 256.37 270.68 261.56 261.08 267.78 253.78 C 274.00 246.48 284.44 242.74 290.75 234.75 C 297.06 226.76 307.17 222.91 314.23 216.23 C 321.29 209.55 333.47 206.09 338.00 198.00
C 350.92 194.97 363.44 186.84 378.68 180.68 C 393.92 174.52 408.98 168.93 425.67 164.67 C 442.36 160.41 461.03 157.25 479.00 155.00 C 496.97 152.75 519.83 152.47 538.00 153.00
C 537.02 154.11 535.68 154.28 537.00 156.00
M 553.00 309.00 
C 603.10 317.47 658.77 343.00 669.99 399.01 C 681.21 455.02 668.76 517.85 635.75 563.75 C 602.73 609.64 552.44 635.06 496.00 632.00
C 483.19 633.24 470.77 630.06 458.78 626.22 C 446.79 622.38 438.58 618.56 425.00 616.00
C 425.31 610.63 414.48 609.38 413.08 601.92 C 411.68 594.46 416.11 587.50 419.00 582.00
C 421.78 583.26 431.02 577.82 434.70 574.70 C 438.37 571.57 446.91 569.74 448.00 563.00
C 453.18 566.93 458.64 560.37 462.89 557.89 C 467.14 555.41 475.42 551.02 475.00 545.00
C 479.92 547.60 492.44 539.07 490.00 532.00
C 497.62 534.71 500.79 526.10 499.00 521.00
C 501.42 526.89 508.82 520.32 506.00 516.00
C 510.80 512.90 516.06 508.27 518.75 502.75 C 521.44 497.23 524.93 492.88 524.00 486.00
C 529.86 486.37 530.16 477.10 532.92 471.92 C 535.67 466.74 537.99 457.99 536.00 452.00
C 541.57 456.17 538.16 441.83 542.00 437.00
C 524.98 438.76 507.99 447.12 493.92 455.92 C 479.85 464.72 466.60 474.54 456.23 486.23 C 445.87 497.92 436.69 509.79 427.75 523.75 C 418.80 537.70 412.45 551.95 406.07 568.07 C 399.70 584.20 398.73 607.47 394.00 624.00
C 393.84 628.16 393.50 632.87 394.00 637.00
C 396.23 655.44 410.74 663.85 426.08 672.92 C 441.42 681.98 454.78 689.54 472.07 694.93 C 489.37 700.32 511.03 705.00 530.00 705.00
C 534.84 705.00 539.88 704.98 544.00 706.00
C 552.56 708.12 553.51 712.73 554.00 721.00
C 554.93 736.77 533.65 733.21 521.00 733.00 C 508.35 732.79 493.34 728.00 480.00 727.00
C 481.14 731.02 476.36 729.85 474.00 730.00
C 474.99 727.35 481.06 727.91 478.00 724.00
C 475.98 723.56 474.11 723.19 472.00 723.00
C 458.82 721.81 449.24 715.67 436.00 714.00
C 435.22 708.31 425.55 706.88 419.32 702.68 C 413.09 698.48 406.34 694.31 400.32 690.68 C 394.30 687.05 389.38 681.64 383.25 677.75 C 377.13 673.85 372.07 668.08 367.23 662.77 C 362.39 657.46 356.93 652.83 352.23 646.77 C 347.54 640.71 343.54 635.94 339.30 629.70 C 335.05 623.47 331.38 616.73 327.74 610.26 C 324.11 603.78 322.12 596.01 319.01 588.99 C 315.89 581.97 313.06 574.37 311.02 565.98 C 308.99 557.58 307.22 548.98 305.74 540.26 C 304.26 531.53 305.14 520.37 305.00 511.00 C 304.86 501.63 304.56 489.90 305.98 480.98 C 307.39 472.05 309.00 463.92 311.78 455.78 C 314.56 447.64 315.57 440.25 318.98 432.98 C 322.38 425.70 325.68 418.82 328.75 411.75 C 331.83 404.69 336.72 400.67 340.77 393.77 C 344.82 386.87 348.63 381.64 354.23 376.23 C 359.83 370.82 364.58 365.32 370.03 361.03 C 375.49 356.74 380.96 352.22 386.70 347.70 C 392.43 343.17 399.43 338.61 405.23 335.23 C 411.02 331.85 423.12 328.09 419.00 324.00
C 436.90 324.57 453.14 310.80 472.00 311.00
C 476.14 310.75 479.88 310.51 484.00 310.00
C 490.78 307.65 497.97 305.49 506.00 305.00 C 514.04 304.51 525.03 305.52 533.00 305.00 C 540.97 304.48 538.81 308.15 545.00 307.00 C 551.19 305.84 553.54 309.31 553.00 309.00
M 806.00 619.00 
C 826.41 621.15 821.46 656.39 800.78 652.22 C 780.09 648.05 785.31 616.82 806.00 619.00 Z"/>
</g>
<g fill="#170902" fill-opacity="1.00" stroke="None">
<path d="
M 587.00 793.00 
C 602.25 788.93 619.85 783.54 634.02 777.03 C 648.20 770.51 662.99 762.78 675.75 754.75 C 688.50 746.71 701.33 737.76 712.25 728.25 C 723.16 718.74 735.99 706.97 744.30 696.30 C 752.62 685.64 770.02 665.58 780.75 681.25 C 791.49 696.92 770.37 709.85 762.25 721.25 C 754.12 732.64 739.57 742.41 729.25 752.25 C 718.93 762.08 704.13 771.49 692.00 779.00
C 683.76 784.10 675.36 790.88 666.00 794.00
C 633.68 809.98 600.85 821.84 565.00 828.00
C 562.93 828.36 561.04 828.71 559.00 829.00
C 514.43 835.42 456.99 831.36 416.33 817.67 C 375.66 803.98 342.25 791.83 310.00 764.00
C 282.46 740.24 258.19 720.59 237.25 689.75 C 216.31 658.92 200.55 627.91 189.07 590.93 C 177.59 553.95 172.30 499.45 176.00 459.00 C 179.70 418.55 192.12 379.86 208.77 344.77 C 225.42 309.68 243.95 286.31 269.00 257.00
C 272.66 252.71 276.76 248.62 281.00 245.00
C 319.84 211.81 360.77 185.84 409.00 171.00
C 437.22 162.32 466.95 156.63 497.00 155.00
C 508.72 154.36 522.09 154.51 533.00 156.00
C 534.33 156.00 535.67 156.00 537.00 156.00
C 535.68 154.28 537.02 154.11 538.00 153.00
C 519.83 152.47 496.97 152.75 479.00 155.00 C 461.03 157.25 442.36 160.41 425.67 164.67 C 408.98 168.93 393.92 174.52 378.68 180.68 C 363.44 186.84 350.92 194.97 338.00 198.00
C 333.47 206.09 321.29 209.55 314.23 216.23 C 307.17 222.91 297.06 226.76 290.75 234.75 C 284.44 242.74 274.00 246.48 267.78 253.78 C 261.56 261.08 256.37 270.68 249.75 277.75 C 243.14 284.82 237.95 295.15 231.00 299.00
C 227.27 312.58 217.10 322.52 211.32 335.32 C 205.55 348.12 199.37 360.80 194.31 374.31 C 189.24 387.81 184.81 401.50 181.00 416.00 C 177.18 430.50 175.79 448.84 173.98 464.98 C 172.16 481.11 172.72 501.94 174.02 517.98 C 175.33 534.01 177.61 552.35 181.01 566.99 C 184.41 581.64 188.73 596.56 192.94 609.92 C 197.14 623.27 204.12 633.25 209.08 645.92 C 214.03 658.60 226.02 669.23 226.00 682.00
C 232.06 681.18 234.00 687.78 236.75 692.25 C 239.50 696.71 246.32 700.43 244.00 706.00
C 252.00 706.04 254.74 716.71 261.10 721.90 C 267.46 727.09 272.24 733.97 277.92 739.08 C 283.60 744.19 291.10 750.53 296.75 755.25 C 302.41 759.97 310.13 766.21 315.08 770.91 C 320.03 775.62 331.42 777.36 332.00 784.00
C 344.85 786.77 356.31 796.90 370.97 803.03 C 385.63 809.15 399.83 814.85 415.98 819.02 C 432.12 823.20 447.72 828.56 465.00 831.00 C 482.28 833.43 505.67 832.67 524.00 833.00 C 542.33 833.33 561.51 829.90 578.99 826.99 C 596.48 824.08 610.81 816.61 627.00 816.00
C 630.92 809.58 643.55 807.95 651.31 803.31 C 659.06 798.66 669.70 795.15 677.75 790.75 C 685.80 786.36 693.11 780.08 700.97 774.97 C 708.84 769.87 716.62 764.58 723.75 758.75 C 730.89 752.92 737.55 747.27 744.30 740.30 C 751.05 733.33 758.35 729.14 764.08 722.08 C 769.81 715.02 775.04 707.89 781.69 700.69 C 788.35 693.50 784.81 679.14 775.25 674.75 C 765.68 670.37 756.56 678.37 750.90 685.90 C 745.24 693.43 739.16 700.11 732.75 706.75 C 726.34 713.39 719.80 718.78 712.92 724.92 C 706.04 731.05 699.36 736.82 691.25 742.25 C 683.14 747.68 675.76 753.69 667.75 757.75 C 659.73 761.80 650.70 767.26 642.23 771.23 C 633.76 775.20 624.12 779.92 615.01 783.01 C 605.89 786.09 595.45 789.40 587.00 793.00 Z"/>
</g>
<g fill="#FAA61D" fill-opacity="1.00" stroke="None">
<path d="
M 409.00 171.00 
C 386.86 182.32 360.45 189.97 338.92 203.92 C 317.39 217.87 301.08 229.84 281.00 247.00
C 279.20 248.91 275.60 252.01 277.00 255.00
C 266.65 259.14 258.42 272.47 252.00 282.00
C 252.77 280.92 256.17 277.45 256.00 281.00
C 251.86 282.92 261.44 287.50 262.00 289.00
C 256.93 292.68 259.24 298.33 256.00 302.00
C 256.33 299.40 254.35 298.65 254.00 297.00
C 250.46 301.30 254.04 306.74 251.00 312.00
C 255.06 312.92 254.91 307.15 258.00 306.00
C 258.66 308.97 257.06 310.38 259.00 313.00
C 261.34 312.18 260.41 308.75 263.00 308.00
C 257.66 305.74 260.80 297.96 262.00 294.00
C 266.42 296.18 264.70 296.77 265.00 301.00
C 267.59 298.61 266.28 294.96 270.00 298.00
C 272.87 297.18 271.38 293.81 273.00 292.00
C 269.04 294.75 263.03 293.89 267.00 288.00
C 283.65 293.48 292.56 270.89 307.25 260.25 C 321.94 249.60 334.83 236.56 351.70 227.70 C 368.56 218.83 384.04 209.81 403.03 203.03 C 422.01 196.24 442.67 189.78 464.00 187.00 C 485.33 184.23 513.39 180.36 536.00 184.00
C 528.91 182.63 520.22 180.86 512.00 182.00
C 513.77 179.97 517.48 181.47 520.00 181.00
C 520.82 177.93 516.70 177.95 520.00 176.00
C 517.62 175.03 515.61 173.25 513.00 173.00
C 513.25 168.96 521.32 170.27 520.00 165.00
C 517.68 167.04 515.37 168.79 512.00 168.00
C 510.86 163.38 515.24 158.19 520.00 159.00
C 513.69 155.23 510.94 162.87 504.00 159.00
C 504.00 162.00 504.00 165.00 504.00 168.00
C 495.81 170.62 501.81 159.83 496.00 159.00
C 511.15 155.11 529.81 157.27 545.00 158.00 C 560.19 158.73 577.77 163.10 592.02 165.98 C 606.27 168.85 621.04 173.28 633.68 178.32 C 646.31 183.37 657.85 188.66 670.22 194.78 C 682.59 200.89 692.64 207.99 703.75 215.25 C 714.85 222.51 724.49 231.28 734.25 239.75 C 744.01 248.23 752.95 257.24 761.75 266.25 C 770.56 275.26 779.26 287.27 786.75 296.25 C 794.24 305.23 807.54 324.23 792.77 331.77 C 778.00 339.31 769.68 318.80 762.25 309.75 C 754.82 300.70 747.73 288.47 737.75 280.25 C 727.77 272.03 719.89 260.20 709.90 253.10 C 699.91 246.00 688.45 235.17 678.00 232.00
C 694.42 243.56 709.48 255.74 725.00 269.00
C 729.98 273.25 734.79 278.07 739.00 283.00
C 747.22 292.62 758.93 303.47 764.75 314.25 C 770.57 325.02 785.24 343.97 797.25 330.25 C 809.26 316.52 791.09 301.55 784.23 290.77 C 777.37 279.99 766.63 270.40 757.75 260.25 C 748.87 250.10 737.99 241.28 727.75 232.25 C 717.51 223.21 706.45 214.88 694.75 207.25 C 683.06 199.61 671.08 193.29 657.92 187.08 C 644.77 180.86 630.75 175.22 616.32 170.68 C 601.90 166.14 584.34 162.44 569.00 160.00
C 558.49 158.33 547.98 156.00 537.00 156.00
C 535.67 156.00 534.33 156.00 533.00 156.00
C 521.07 156.00 508.14 155.48 497.00 155.00
C 466.95 156.63 437.22 162.32 409.00 171.00 Z"/>
</g>
<g fill="#E0B45B" fill-opacity="1.00" stroke="None">
<path d="
M 533.00 156.00 
C 522.09 154.51 508.72 154.36 497.00 155.00
C 508.14 155.48 521.07 156.00 533.00 156.00 Z"/>
</g>
<g fill="#FC9914" fill-opacity="1.00" stroke="None">
<path d="
M 536.00 184.00 
C 549.41 185.06 564.79 186.63 577.22 189.78 C 589.65 192.93 603.14 194.79 614.22 199.78 C 625.30 204.76 637.73 207.38 647.23 213.77 C 656.73 220.17 670.90 220.76 677.00 231.00
C 677.19 231.32 677.70 231.79 678.00 232.00
C 688.45 235.17 699.91 246.00 709.90 253.10 C 719.89 260.20 727.77 272.03 737.75 280.25 C 747.73 288.47 754.82 300.70 762.25 309.75 C 769.68 318.80 778.00 339.31 792.77 331.77 C 807.54 324.23 794.24 305.23 786.75 296.25 C 779.26 287.27 770.56 275.26 761.75 266.25 C 752.95 257.24 744.01 248.23 734.25 239.75 C 724.49 231.28 714.85 222.51 703.75 215.25 C 692.64 207.99 682.59 200.89 670.22 194.78 C 657.85 188.66 646.31 183.37 633.68 178.32 C 621.04 173.28 606.27 168.85 592.02 165.98 C 577.77 163.10 560.19 158.73 545.00 158.00 C 529.81 157.27 511.15 155.11 496.00 159.00
C 501.81 159.83 495.81 170.62 504.00 168.00
C 504.00 165.00 504.00 162.00 504.00 159.00
C 510.94 162.87 513.69 155.23 520.00 159.00
C 515.24 158.19 510.86 163.38 512.00 168.00
C 515.37 168.79 517.68 167.04 520.00 165.00
C 521.32 170.27 513.25 168.96 513.00 173.00
C 515.61 173.25 517.62 175.03 520.00 176.00
C 516.70 177.95 520.82 177.93 520.00 181.00
C 517.48 181.47 513.77 179.97 512.00 182.00
C 520.22 180.86 528.91 182.63 536.00 184.00 Z"/>
</g>
<g fill="#190803" fill-opacity="1.00" stroke="None">
<path d="
M 569.00 160.00 
C 584.34 162.44 601.90 166.14 616.32 170.68 C 630.75 175.22 644.77 180.86 657.92 187.08 C 671.08 193.29 683.06 199.61 694.75 207.25 C 706.45 214.88 717.51 223.21 727.75 232.25 C 737.99 241.28 748.87 250.10 757.75 260.25 C 766.63 270.40 777.37 279.99 784.23 290.77 C 791.09 301.55 809.26 316.52 797.25 330.25 C 785.24 343.97 770.57 325.02 764.75 314.25 C 758.93 303.47 747.22 292.62 739.00 283.00
C 734.41 278.41 729.54 273.54 725.00 269.00
C 709.48 255.74 694.42 243.56 678.00 232.00
C 677.70 231.79 677.19 231.32 677.00 231.00
C 651.58 214.26 620.42 200.95 591.00 194.00
C 591.25 195.53 593.55 196.18 593.00 198.00
C 602.88 197.32 613.66 202.50 622.92 206.08 C 632.19 209.66 641.63 214.42 650.25 217.75 C 658.87 221.08 666.71 227.96 674.78 232.22 C 682.84 236.49 690.97 242.29 697.75 248.25 C 704.54 254.21 715.66 258.77 716.00 267.00
C 722.60 264.80 726.67 274.44 732.75 279.25 C 738.84 284.05 743.00 290.81 748.75 296.25 C 754.50 301.68 756.88 308.07 761.75 314.25 C 766.61 320.44 770.62 326.03 776.25 332.75 C 781.87 339.48 793.54 335.34 800.00 332.00
C 805.52 322.52 806.18 316.09 798.75 308.25 C 791.33 300.40 788.48 292.84 781.75 285.25 C 775.02 277.66 769.89 270.51 763.25 263.75 C 756.61 256.99 750.05 250.47 743.25 243.75 C 736.44 237.03 729.07 231.60 722.08 224.92 C 715.09 218.24 707.42 214.21 700.08 208.92 C 692.75 203.63 680.86 199.75 677.00 192.00
C 673.79 194.33 668.85 191.44 669.00 188.00
C 664.55 190.01 657.08 185.56 656.00 182.00
C 645.54 181.12 634.33 174.82 623.68 171.32 C 613.03 167.83 599.40 165.38 591.00 160.00
C 583.71 160.78 576.05 159.98 569.00 160.00 Z"/>
</g>
<g fill="#E8C24B" fill-opacity="1.00" stroke="None">
<path d="
M 281.00 245.00 
C 277.08 248.92 272.87 253.13 269.00 257.00
C 243.95 286.31 225.42 309.68 208.77 344.77 C 192.12 379.86 179.70 418.55 176.00 459.00 C 172.30 499.45 177.59 553.95 189.07 590.93 C 200.55 627.91 216.31 658.92 237.25 689.75 C 258.19 720.59 282.46 740.24 310.00 764.00
C 283.62 737.37 257.04 717.91 236.25 685.75 C 215.46 653.60 198.13 619.93 188.07 581.93 C 178.02 543.92 172.63 487.31 178.98 446.98 C 185.32 406.64 196.81 367.54 215.92 333.92 C 235.02 300.29 251.18 272.48 281.00 247.00
C 301.08 229.84 317.39 217.87 338.92 203.92 C 360.45 189.97 386.86 182.32 409.00 171.00
C 360.77 185.84 319.84 211.81 281.00 245.00 Z"/>
</g>
<g fill="#FAB521" fill-opacity="1.00" stroke="None">
<path d="
M 281.00 247.00 
C 251.18 272.48 235.02 300.29 215.92 333.92 C 196.81 367.54 185.32 406.64 178.98 446.98 C 172.63 487.31 178.02 543.92 188.07 581.93 C 198.13 619.93 215.46 653.60 236.25 685.75 C 257.04 717.91 283.62 737.37 310.00 764.00
C 342.25 791.83 375.66 803.98 416.33 817.67 C 456.99 831.36 514.43 835.42 559.00 829.00
C 535.36 829.17 506.09 831.99 482.00 829.00 C 457.91 826.01 434.96 821.85 412.98 815.02 C 390.99 808.20 376.27 801.36 358.00 793.00
C 355.37 789.63 359.30 791.59 360.00 789.00
C 357.55 785.74 354.95 790.95 352.00 790.00
C 344.29 781.06 332.87 779.01 325.00 771.00
C 327.51 768.29 328.81 764.46 328.00 760.00
C 321.05 761.85 326.37 752.69 322.00 751.00
C 324.09 749.80 327.45 750.82 329.00 749.00
C 327.01 747.08 323.69 747.74 322.00 746.00
C 331.19 739.01 340.15 757.43 352.00 758.00
C 353.28 760.47 352.13 762.32 352.00 765.00
C 360.13 760.86 370.72 770.61 380.68 774.32 C 390.63 778.03 400.01 784.94 411.23 787.77 C 422.45 790.60 434.39 794.66 446.22 796.78 C 458.05 798.90 473.34 802.57 485.00 801.00
C 395.05 792.29 307.59 744.41 257.00 666.00
C 240.75 647.35 231.75 627.78 222.69 604.31 C 213.64 580.83 205.90 553.57 204.02 526.98 C 202.14 500.38 199.70 462.22 208.00 437.00
C 213.30 420.90 216.13 400.66 222.93 384.93 C 229.72 369.20 236.00 353.09 244.77 338.77 C 253.54 324.46 261.61 311.90 272.25 299.25 C 282.88 286.59 292.23 275.05 304.75 263.75 C 317.27 252.45 329.75 244.36 343.70 234.70 C 357.65 225.04 371.10 218.55 387.08 211.08 C 403.05 203.60 419.71 199.02 437.22 193.22 C 454.73 187.42 478.54 188.93 497.00 185.00
C 497.83 184.82 498.21 184.17 499.00 184.00
C 513.38 180.94 530.03 186.06 544.01 185.99 C 557.99 185.92 571.28 189.75 584.00 193.00
C 586.48 193.17 588.67 193.45 591.00 194.00
C 620.42 200.95 651.58 214.26 677.00 231.00
C 670.90 220.76 656.73 220.17 647.23 213.77 C 637.73 207.38 625.30 204.76 614.22 199.78 C 603.14 194.79 589.65 192.93 577.22 189.78 C 564.79 186.63 549.41 185.06 536.00 184.00
C 513.39 180.36 485.33 184.23 464.00 187.00 C 442.67 189.78 422.01 196.24 403.03 203.03 C 384.04 209.81 368.56 218.83 351.70 227.70 C 334.83 236.56 321.94 249.60 307.25 260.25 C 292.56 270.89 283.65 293.48 267.00 288.00
C 263.03 293.89 269.04 294.75 273.00 292.00
C 271.38 293.81 272.87 297.18 270.00 298.00
C 266.28 294.96 267.59 298.61 265.00 301.00
C 264.70 296.77 266.42 296.18 262.00 294.00
C 260.80 297.96 257.66 305.74 263.00 308.00
C 260.41 308.75 261.34 312.18 259.00 313.00
C 257.06 310.38 258.66 308.97 258.00 306.00
C 254.91 307.15 255.06 312.92 251.00 312.00
C 254.04 306.74 250.46 301.30 254.00 297.00
C 254.35 298.65 256.33 299.40 256.00 302.00
C 259.24 298.33 256.93 292.68 262.00 289.00
C 261.44 287.50 251.86 282.92 256.00 281.00
C 256.17 277.45 252.77 280.92 252.00 282.00
C 258.42 272.47 266.65 259.14 277.00 255.00
C 275.60 252.01 279.20 248.91 281.00 247.00 Z"/>
</g>
<g fill="#190701" fill-opacity="1.00" stroke="None">
<path d="
M 584.00 193.00 
C 571.28 189.75 557.99 185.92 544.01 185.99 C 530.03 186.06 513.38 180.94 499.00 184.00
C 527.51 184.20 556.10 191.10 584.00 193.00 Z"/>
</g>
<g fill="#170A01" fill-opacity="1.00" stroke="None">
<path d="
M 208.00 437.00 
C 203.57 467.33 202.18 500.20 206.00 531.00
C 203.42 495.78 205.90 447.99 215.01 415.01 C 224.12 382.03 236.68 352.88 254.70 325.70 C 272.71 298.51 289.21 279.81 314.70 258.70 C 340.19 237.58 363.35 221.81 394.32 209.32 C 425.30 196.83 464.53 186.13 500.00 187.00
C 499.58 186.27 497.61 185.15 497.00 185.00
C 478.54 188.93 454.73 187.42 437.22 193.22 C 419.71 199.02 403.05 203.60 387.08 211.08 C 371.10 218.55 357.65 225.04 343.70 234.70 C 329.75 244.36 317.27 252.45 304.75 263.75 C 292.23 275.05 282.88 286.59 272.25 299.25 C 261.61 311.90 253.54 324.46 244.77 338.77 C 236.00 353.09 229.72 369.20 222.93 384.93 C 216.13 400.66 213.30 420.90 208.00 437.00 Z"/>
</g>
<g fill="#5F470B" fill-opacity="1.00" stroke="None">
<path d="
M 269.00 257.00 
C 272.87 253.13 277.08 248.92 281.00 245.00
C 276.76 248.62 272.66 252.71 269.00 257.00 Z"/>
</g>
<g fill="#7E5613" fill-opacity="1.00" stroke="None">
<path d="
M 739.00 283.00 
C 734.79 278.07 729.98 273.25 725.00 269.00
C 729.54 273.54 734.41 278.41 739.00 283.00 Z"/>
</g>
<g fill="#011703" fill-opacity="1.00" stroke="None">
<path d="
M 484.00 310.00 
C 506.35 307.23 530.34 305.17 553.00 309.00
C 553.54 309.31 551.19 305.84 545.00 307.00 C 538.81 308.15 540.97 304.48 533.00 305.00 C 525.03 305.52 514.04 304.51 506.00 305.00 C 497.97 305.49 490.78 307.65 484.00 310.00 Z"/>
</g>
<g fill="#76C535" fill-opacity="1.00" stroke="None">
<path d="
M 484.00 310.00 
C 479.88 310.51 476.14 310.75 472.00 311.00
C 462.49 313.04 451.46 316.55 442.00 320.00
C 434.68 324.04 424.23 328.50 415.77 332.77 C 407.31 337.04 398.81 341.62 391.25 347.25 C 383.70 352.89 376.74 358.37 369.75 364.75 C 362.77 371.14 356.78 377.45 350.75 384.75 C 344.72 392.06 339.07 399.81 334.25 408.25 C 329.42 416.68 325.85 425.33 321.69 434.69 C 317.54 444.06 315.25 453.79 312.22 464.22 C 309.19 474.65 309.27 487.59 308.00 499.00 C 306.73 510.41 307.52 524.95 308.78 536.22 C 310.04 547.50 312.44 558.35 315.32 568.68 C 318.20 579.01 321.57 587.80 325.77 597.23 C 329.97 606.66 333.72 614.39 338.92 623.08 C 344.12 631.78 349.44 637.28 354.76 644.25 C 360.08 651.22 365.98 657.57 372.75 664.25 C 379.53 670.93 386.47 676.30 393.75 682.25 C 401.03 688.20 409.71 692.04 417.23 697.77 C 424.75 703.50 435.63 705.47 443.08 710.92 C 450.52 716.38 466.29 715.55 472.00 722.00
C 472.25 722.28 472.00 723.00 472.00 723.00
C 474.11 723.19 475.98 723.56 478.00 724.00
C 489.55 726.50 505.62 730.63 517.22 730.78 C 528.82 730.93 552.10 736.31 554.00 721.00
C 553.51 712.73 552.56 708.12 544.00 706.00
C 539.57 705.45 533.80 705.37 530.00 705.00
C 511.03 705.00 489.37 700.32 472.07 694.93 C 454.78 689.54 441.42 681.98 426.08 672.92 C 410.74 663.85 396.23 655.44 394.00 637.00
C 394.22 637.54 392.07 627.88 393.00 622.00 C 393.93 616.12 393.63 610.38 394.98 603.98 C 396.32 597.57 395.59 592.98 397.98 585.98 C 400.37 578.98 398.45 578.79 401.99 569.99 C 405.54 561.20 409.58 549.81 414.31 541.31 C 419.03 532.80 424.02 523.64 429.77 515.77 C 435.52 507.90 441.23 499.68 447.30 492.30 C 453.37 484.93 450.71 487.33 457.25 481.25 C 463.79 475.16 472.36 467.27 479.00 464.00
C 498.27 449.52 520.62 438.76 544.00 434.00
C 542.07 448.90 537.00 466.03 531.69 479.69 C 526.39 493.36 519.11 505.30 510.75 516.75 C 502.38 528.19 492.57 536.95 482.25 546.25 C 471.92 555.55 457.25 561.54 446.77 569.77 C 436.29 578.00 415.92 580.02 415.01 596.01 C 414.10 612.00 435.56 615.79 448.07 620.93 C 460.59 626.06 481.44 631.63 496.00 632.00
C 552.44 635.06 602.73 609.64 635.75 563.75 C 668.76 517.85 681.21 455.02 669.99 399.01 C 658.77 343.00 603.10 317.47 553.00 309.00
C 530.34 305.17 506.35 307.23 484.00 310.00
M 520.00 605.00 
C 512.74 605.88 504.17 605.69 497.00 605.00
C 483.01 605.00 466.27 601.87 456.00 594.00
C 523.09 562.26 570.69 492.20 572.00 418.00
C 570.43 407.03 557.24 407.60 548.00 408.00 C 538.76 408.40 527.07 409.96 519.00 414.00
C 493.15 426.93 467.51 437.20 446.25 459.25 C 424.99 481.30 407.96 498.76 394.70 526.69 C 381.43 554.63 369.22 588.44 370.00 621.00
C 354.59 611.91 350.93 595.07 343.68 578.32 C 336.43 561.57 331.92 540.31 331.00 521.00 C 330.08 501.69 332.67 475.90 338.78 458.78 C 344.88 441.65 350.91 425.35 361.30 411.30 C 371.70 397.26 381.54 385.61 394.75 374.75 C 407.96 363.89 423.11 354.59 438.00 350.00
C 468.98 336.47 504.81 331.60 540.00 334.00
C 580.47 336.76 630.24 357.47 642.92 400.08 C 655.61 442.68 643.63 501.30 621.23 537.23 C 598.83 573.16 562.59 604.15 520.00 605.00 Z"/>
</g>
<g fill="#011603" fill-opacity="1.00" stroke="None">
<path d="
M 472.00 723.00 
C 472.00 723.00 472.25 722.28 472.00 722.00
C 443.14 718.59 417.45 699.53 393.75 683.25 C 370.06 666.97 352.44 647.31 336.75 622.25 C 321.05 597.19 311.03 566.30 307.02 535.97 C 303.01 505.65 308.45 461.77 320.32 434.32 C 332.19 406.87 346.20 384.85 368.25 364.25 C 390.30 343.65 414.42 330.05 442.00 320.00
C 451.46 316.55 462.49 313.04 472.00 311.00
C 453.14 310.80 436.90 324.57 419.00 324.00
C 423.12 328.09 411.02 331.85 405.23 335.23 C 399.43 338.61 392.43 343.17 386.70 347.70 C 380.96 352.22 375.49 356.74 370.03 361.03 C 364.58 365.32 359.83 370.82 354.23 376.23 C 348.63 381.64 344.82 386.87 340.77 393.77 C 336.72 400.67 331.83 404.69 328.75 411.75 C 325.68 418.82 322.38 425.70 318.98 432.98 C 315.57 440.25 314.56 447.64 311.78 455.78 C 309.00 463.92 307.39 472.05 305.98 480.98 C 304.56 489.90 304.86 501.63 305.00 511.00 C 305.14 520.37 304.26 531.53 305.74 540.26 C 307.22 548.98 308.99 557.58 311.02 565.98 C 313.06 574.37 315.89 581.97 319.01 588.99 C 322.12 596.01 324.11 603.78 327.74 610.26 C 331.38 616.73 335.05 623.47 339.30 629.70 C 343.54 635.94 347.54 640.71 352.23 646.77 C 356.93 652.83 362.39 657.46 367.23 662.77 C 372.07 668.08 377.13 673.85 383.25 677.75 C 389.38 681.64 394.30 687.05 400.32 690.68 C 406.34 694.31 413.09 698.48 419.32 702.68 C 425.55 706.88 435.22 708.31 436.00 714.00
C 449.24 715.67 458.82 721.81 472.00 723.00 Z"/>
</g>
<g fill="#A1D766" fill-opacity="1.00" stroke="None">
<path d="
M 472.00 722.00 
C 466.29 715.55 450.52 716.38 443.08 710.92 C 435.63 705.47 424.75 703.50 417.23 697.77 C 409.71 692.04 401.03 688.20 393.75 682.25 C 386.47 676.30 379.53 670.93 372.75 664.25 C 365.98 657.57 360.08 651.22 354.76 644.25 C 349.44 637.28 344.12 631.78 338.92 623.08 C 333.72 614.39 329.97 606.66 325.77 597.23 C 321.57 587.80 318.20 579.01 315.32 568.68 C 312.44 558.35 310.04 547.50 308.78 536.22 C 307.52 524.95 306.73 510.41 308.00 499.00 C 309.27 487.59 309.19 474.65 312.22 464.22 C 315.25 453.79 317.54 444.06 321.69 434.69 C 325.85 425.33 329.42 416.68 334.25 408.25 C 339.07 399.81 344.72 392.06 350.75 384.75 C 356.78 377.45 362.77 371.14 369.75 364.75 C 376.74 358.37 383.70 352.89 391.25 347.25 C 398.81 341.62 407.31 337.04 415.77 332.77 C 424.23 328.50 434.68 324.04 442.00 320.00
C 414.42 330.05 390.30 343.65 368.25 364.25 C 346.20 384.85 332.19 406.87 320.32 434.32 C 308.45 461.77 303.01 505.65 307.02 535.97 C 311.03 566.30 321.05 597.19 336.75 622.25 C 352.44 647.31 370.06 666.97 393.75 683.25 C 417.45 699.53 443.14 718.59 472.00 722.00 Z"/>
</g>
<g fill="#021704" fill-opacity="1.00" stroke="None">
<path d="
M 438.00 350.00 
C 378.50 375.98 333.00 436.96 333.00 503.00
C 333.00 509.67 333.00 516.33 333.00 523.00
C 333.00 557.75 347.23 593.72 369.00 620.00
C 370.58 530.87 434.14 442.58 519.00 414.00
C 527.07 409.96 538.76 408.40 548.00 408.00 C 557.24 407.60 570.43 407.03 572.00 418.00
C 572.83 403.83 552.78 406.92 541.00 407.00 C 529.22 407.08 516.13 412.34 505.90 416.90 C 495.68 421.47 484.97 425.32 475.99 430.99 C 467.01 436.66 459.61 444.77 450.75 450.75 C 441.90 456.74 437.84 468.34 428.00 469.00
C 430.39 472.53 425.83 476.08 423.25 478.25 C 420.66 480.41 419.76 486.84 416.00 483.00
C 416.59 486.09 415.70 490.11 412.00 488.00
C 408.86 501.90 398.15 510.39 392.68 524.68 C 387.21 538.97 378.56 549.92 375.03 565.03 C 371.50 580.14 367.76 599.53 366.00 615.00
C 361.70 612.52 364.03 608.65 359.70 605.30 C 355.36 601.96 359.55 599.07 360.00 595.00
C 350.44 598.06 351.17 584.47 347.01 576.99 C 342.85 569.52 340.63 559.08 338.22 549.78 C 335.81 540.47 334.92 527.35 335.00 517.00 C 335.08 506.65 335.01 495.69 336.75 485.75 C 338.50 475.82 338.89 464.67 342.97 455.97 C 347.06 447.27 349.74 439.39 353.00 430.00
C 357.60 432.20 358.05 419.94 362.71 415.71 C 367.36 411.47 370.67 403.59 375.75 398.75 C 380.83 393.91 384.27 386.86 390.08 383.08 C 395.90 379.30 400.46 370.27 408.00 372.00
C 409.63 366.89 418.21 359.90 425.74 357.74 C 433.28 355.59 439.71 350.41 448.08 347.08 C 456.44 343.74 466.46 342.75 476.07 340.07 C 485.68 337.40 496.15 337.35 506.08 335.08 C 516.01 332.81 530.59 337.45 540.00 334.00
C 504.81 331.60 468.98 336.47 438.00 350.00 Z"/>
</g>
<g fill="#000C18" fill-opacity="1.00" stroke="None">
<path d="
M 572.00 418.00 
C 570.69 492.20 523.09 562.26 456.00 594.00
C 466.27 601.87 483.01 605.00 497.00 605.00
C 504.66 605.00 512.34 605.15 520.00 605.00
C 562.59 604.15 598.83 573.16 621.23 537.23 C 643.63 501.30 655.61 442.68 642.92 400.08 C 630.24 357.47 580.47 336.76 540.00 334.00
C 530.59 337.45 516.01 332.81 506.08 335.08 C 496.15 337.35 485.68 337.40 476.07 340.07 C 466.46 342.75 456.44 343.74 448.08 347.08 C 439.71 350.41 433.28 355.59 425.74 357.74 C 418.21 359.90 409.63 366.89 408.00 372.00
C 400.46 370.27 395.90 379.30 390.08 383.08 C 384.27 386.86 380.83 393.91 375.75 398.75 C 370.67 403.59 367.36 411.47 362.71 415.71 C 358.05 419.94 357.60 432.20 353.00 430.00
C 349.74 439.39 347.06 447.27 342.97 455.97 C 338.89 464.67 338.50 475.82 336.75 485.75 C 335.01 495.69 335.08 506.65 335.00 517.00 C 334.92 527.35 335.81 540.47 338.22 549.78 C 340.63 559.08 342.85 569.52 347.01 576.99 C 351.17 584.47 350.44 598.06 360.00 595.00
C 359.55 599.07 355.36 601.96 359.70 605.30 C 364.03 608.65 361.70 612.52 366.00 615.00
C 367.76 599.53 371.50 580.14 375.03 565.03 C 378.56 549.92 387.21 538.97 392.68 524.68 C 398.15 510.39 408.86 501.90 412.00 488.00
C 415.70 490.11 416.59 486.09 416.00 483.00
C 419.76 486.84 420.66 480.41 423.25 478.25 C 425.83 476.08 430.39 472.53 428.00 469.00
C 437.84 468.34 441.90 456.74 450.75 450.75 C 459.61 444.77 467.01 436.66 475.99 430.99 C 484.97 425.32 495.68 421.47 505.90 416.90 C 516.13 412.34 529.22 407.08 541.00 407.00 C 552.78 406.92 572.83 403.83 572.00 418.00 Z"/>
</g>
<g fill="#A0D766" fill-opacity="1.00" stroke="None">
<path d="
M 519.00 414.00 
C 434.14 442.58 370.58 530.87 369.00 620.00
C 347.23 593.72 333.00 557.75 333.00 523.00
C 332.39 516.71 332.40 509.23 333.00 503.00
C 333.00 436.96 378.50 375.98 438.00 350.00
C 423.11 354.59 407.96 363.89 394.75 374.75 C 381.54 385.61 371.70 397.26 361.30 411.30 C 350.91 425.35 344.88 441.65 338.78 458.78 C 332.67 475.90 330.08 501.69 331.00 521.00 C 331.92 540.31 336.43 561.57 343.68 578.32 C 350.93 595.07 354.59 611.91 370.00 621.00
C 369.22 588.44 381.43 554.63 394.70 526.69 C 407.96 498.76 424.99 481.30 446.25 459.25 C 467.51 437.20 493.15 426.93 519.00 414.00 Z"/>
</g>
<g fill="#011704" fill-opacity="1.00" stroke="None">
<path d="
M 479.00 464.00 
C 429.32 501.31 396.33 562.96 394.00 624.00
C 398.73 607.47 399.70 584.20 406.07 568.07 C 412.45 551.95 418.80 537.70 427.75 523.75 C 436.69 509.79 445.87 497.92 456.23 486.23 C 466.60 474.54 479.85 464.72 493.92 455.92 C 507.99 447.12 524.98 438.76 542.00 437.00
C 538.16 441.83 541.57 456.17 536.00 452.00
C 537.99 457.99 535.67 466.74 532.92 471.92 C 530.16 477.10 529.86 486.37 524.00 486.00
C 524.93 492.88 521.44 497.23 518.75 502.75 C 516.06 508.27 510.80 512.90 506.00 516.00
C 508.82 520.32 501.42 526.89 499.00 521.00
C 500.79 526.10 497.62 534.71 490.00 532.00
C 492.44 539.07 479.92 547.60 475.00 545.00
C 475.42 551.02 467.14 555.41 462.89 557.89 C 458.64 560.37 453.18 566.93 448.00 563.00
C 446.91 569.74 438.37 571.57 434.70 574.70 C 431.02 577.82 421.78 583.26 419.00 582.00
C 416.11 587.50 411.68 594.46 413.08 601.92 C 414.48 609.38 425.31 610.63 425.00 616.00
C 438.58 618.56 446.79 622.38 458.78 626.22 C 470.77 630.06 483.19 633.24 496.00 632.00
C 481.44 631.63 460.59 626.06 448.07 620.93 C 435.56 615.79 414.10 612.00 415.01 596.01 C 415.92 580.02 436.29 578.00 446.77 569.77 C 457.25 561.54 471.92 555.55 482.25 546.25 C 492.57 536.95 502.38 528.19 510.75 516.75 C 519.11 505.30 526.39 493.36 531.69 479.69 C 537.00 466.03 542.07 448.90 544.00 434.00
C 520.62 438.76 498.27 449.52 479.00 464.00 Z"/>
</g>
<g fill="#E6C34C" fill-opacity="1.00" stroke="None">
<path d="
M 257.00 666.00 
C 230.29 624.60 212.08 580.01 206.00 531.00
C 202.18 500.20 203.57 467.33 208.00 437.00
C 199.70 462.22 202.14 500.38 204.02 526.98 C 205.90 553.57 213.64 580.83 222.69 604.31 C 231.75 627.78 240.75 647.35 257.00 666.00 Z"/>
</g>
<g fill="#9DD867" fill-opacity="1.00" stroke="None">
<path d="
M 394.00 637.00 
C 393.50 632.87 393.84 628.16 394.00 624.00
C 396.33 562.96 429.32 501.31 479.00 464.00
C 472.36 467.27 463.79 475.16 457.25 481.25 C 450.71 487.33 453.37 484.93 447.30 492.30 C 441.23 499.68 435.52 507.90 429.77 515.77 C 424.02 523.64 419.03 532.80 414.31 541.31 C 409.58 549.81 405.54 561.20 401.99 569.99 C 398.45 578.79 400.37 578.98 397.98 585.98 C 395.59 592.98 396.32 597.57 394.98 603.98 C 393.63 610.38 393.93 616.12 393.00 622.00 C 392.07 627.88 394.22 637.54 394.00 637.00 Z"/>
</g>
<g fill="#4C712E" fill-opacity="1.00" stroke="None">
<path d="
M 333.00 523.00 
C 333.00 516.33 333.00 509.67 333.00 503.00
C 332.40 509.23 332.39 516.71 333.00 523.00 Z"/>
</g>
<g fill="#335C22" fill-opacity="1.00" stroke="None">
<path d="
M 520.00 605.00 
C 512.34 605.15 504.66 605.00 497.00 605.00
C 504.17 605.69 512.74 605.88 520.00 605.00 Z"/>
</g>
<g fill="#190602" fill-opacity="1.00" stroke="None">
<path d="
M 806.00 619.00 
C 785.31 616.82 780.09 648.05 800.78 652.22 C 821.46 656.39 826.41 621.15 806.00 619.00
M 817.00 640.00 
C 814.02 651.01 800.74 654.48 792.75 646.25 C 784.76 638.01 789.70 622.37 801.00 621.00
C 812.80 619.56 819.73 629.92 817.00 640.00 Z"/>
</g>
<g fill="#DFA649" fill-opacity="1.00" stroke="None">
<path d="
M 817.00 640.00 
C 813.09 649.73 801.02 652.73 793.75 645.25 C 786.48 637.76 791.11 623.45 801.00 621.00
C 789.70 622.37 784.76 638.01 792.75 646.25 C 800.74 654.48 814.02 651.01 817.00 640.00 Z"/>
</g>
<g fill="#F7951A" fill-opacity="1.00" stroke="None">
<path d="
M 817.00 640.00 
C 819.73 629.92 812.80 619.56 801.00 621.00
C 791.11 623.45 786.48 637.76 793.75 645.25 C 801.02 652.73 813.09 649.73 817.00 640.00 Z"/>
</g>
<g fill="#E0A543" fill-opacity="1.00" stroke="None">
<path d="
M 587.00 793.00 
C 576.45 795.82 564.46 798.51 554.00 800.00
C 569.08 800.00 585.25 795.00 599.07 791.07 C 612.90 787.14 626.47 781.88 639.22 776.22 C 651.98 770.57 662.33 764.13 674.23 757.23 C 686.13 750.33 695.46 742.74 706.70 734.70 C 717.94 726.65 723.92 718.66 734.75 708.75 C 745.59 698.85 748.93 690.56 761.08 680.08 C 773.24 669.60 787.93 688.75 777.25 700.25 C 766.56 711.75 762.29 719.89 751.75 729.75 C 741.22 739.61 733.58 746.36 723.25 755.25 C 712.92 764.15 701.93 770.34 692.00 779.00
C 704.13 771.49 718.93 762.08 729.25 752.25 C 739.57 742.41 754.12 732.64 762.25 721.25 C 770.37 709.85 791.49 696.92 780.75 681.25 C 770.02 665.58 752.62 685.64 744.30 696.30 C 735.99 706.97 723.16 718.74 712.25 728.25 C 701.33 737.76 688.50 746.71 675.75 754.75 C 662.99 762.78 648.20 770.51 634.02 777.03 C 619.85 783.54 602.25 788.93 587.00 793.00 Z"/>
</g>
<g fill="#FC9E15" fill-opacity="1.00" stroke="None">
<path d="
M 554.00 800.00 
C 531.28 800.00 508.06 803.23 485.00 801.00
C 473.34 802.57 458.05 798.90 446.22 796.78 C 434.39 794.66 422.45 790.60 411.23 787.77 C 400.01 784.94 390.63 778.03 380.68 774.32 C 370.72 770.61 360.13 760.86 352.00 765.00
C 352.13 762.32 353.28 760.47 352.00 758.00
C 340.15 757.43 331.19 739.01 322.00 746.00
C 323.69 747.74 327.01 747.08 329.00 749.00
C 327.45 750.82 324.09 749.80 322.00 751.00
C 326.37 752.69 321.05 761.85 328.00 760.00
C 328.81 764.46 327.51 768.29 325.00 771.00
C 332.87 779.01 344.29 781.06 352.00 790.00
C 354.95 790.95 357.55 785.74 360.00 789.00
C 359.30 791.59 355.37 789.63 358.00 793.00
C 376.27 801.36 390.99 808.20 412.98 815.02 C 434.96 821.85 457.91 826.01 482.00 829.00 C 506.09 831.99 535.36 829.17 559.00 829.00
C 561.04 828.71 562.93 828.36 565.00 828.00
C 581.33 822.53 600.71 818.93 617.67 813.67 C 634.63 808.41 649.25 799.58 666.00 794.00
C 675.36 790.88 683.76 784.10 692.00 779.00
C 701.93 770.34 712.92 764.15 723.25 755.25 C 733.58 746.36 741.22 739.61 751.75 729.75 C 762.29 719.89 766.56 711.75 777.25 700.25 C 787.93 688.75 773.24 669.60 761.08 680.08 C 748.93 690.56 745.59 698.85 734.75 708.75 C 723.92 718.66 717.94 726.65 706.70 734.70 C 695.46 742.74 686.13 750.33 674.23 757.23 C 662.33 764.13 651.98 770.57 639.22 776.22 C 626.47 781.88 612.90 787.14 599.07 791.07 C 585.25 795.00 569.08 800.00 554.00 800.00 Z"/>
</g>
<g fill="#214712" fill-opacity="1.00" stroke="None">
<path d="
M 544.00 706.00 
C 539.88 704.98 534.84 705.00 530.00 705.00
C 533.80 705.37 539.57 705.45 544.00 706.00 Z"/>
</g>
<g fill="#011805" fill-opacity="1.00" stroke="None">
<path d="
M 478.00 724.00 
C 481.06 727.91 474.99 727.35 474.00 730.00
C 476.36 729.85 481.14 731.02 480.00 727.00
C 493.34 728.00 508.35 732.79 521.00 733.00 C 533.65 733.21 554.93 736.77 554.00 721.00
C 552.10 736.31 528.82 730.93 517.22 730.78 C 505.62 730.63 489.55 726.50 478.00 724.00 Z"/>
</g>
<g fill="#E2A842" fill-opacity="1.00" stroke="None">
<path d="
M 565.00 828.00 
C 600.85 821.84 633.68 809.98 666.00 794.00
C 649.25 799.58 634.63 808.41 617.67 813.67 C 600.71 818.93 581.33 822.53 565.00 828.00 Z"/>
</g>
</svg>